<?xml version="1.0" encoding="utf-8"?>
<!-- Generator: Adobe Illustrator 16.0.0, SVG Export Plug-In . SVG Version: 6.00 Build 0)  -->
<!DOCTYPE svg PUBLIC "-//W3C//DTD SVG 1.1//EN" "http://www.w3.org/Graphics/SVG/1.1/DTD/svg11.dtd">
<svg version="1.1" id="Layer_1" xmlns="http://www.w3.org/2000/svg" xmlns:xlink="http://www.w3.org/1999/xlink" x="0px" y="0px"
	 width="125px" height="125px" viewBox="0 0 125 125" enable-background="new 0 0 125 125" xml:space="preserve">
<g>
	<g>
		<path fill="#7AB800" d="M106.494,15.673c-36.15,0-42.266-13.723-42.322-13.851c-0.264-0.671-0.918-1.12-1.66-1.136
			c0,0-0.016,0-0.031,0c-0.719,0-1.381,0.449-1.67,1.104c-0.043,0.146-6.291,13.883-42.307,13.883c-1.006,0-1.801,0.814-1.801,1.799
			V78.96c0,25.171,43.234,44.401,45.064,45.21c0.242,0.104,0.473,0.145,0.732,0.145c0.238,0,0.496-0.041,0.726-0.145
			c1.849-0.809,45.071-20.039,45.071-45.21V17.472C108.289,16.487,107.49,15.673,106.494,15.673z"/>
	</g>
</g>
<g>
	<linearGradient id="SVGID_1_" gradientUnits="userSpaceOnUse" x1="91.7334" y1="61.8076" x2="103.7412" y2="61.8076">
		<stop  offset="0" style="stop-color:#4A4A4A"/>
		<stop  offset="1" style="stop-color:#D1D1D1"/>
	</linearGradient>
	<path fill="url(#SVGID_1_)" d="M95.061,68.391l8.681-7.883l-12.007-5.283c0,0-0.051,1.508,0.774,3.957
		C93.468,62.028,95.061,68.391,95.061,68.391z"/>
	<g>
		<defs>
			<rect id="SVGID_2_" x="25.049" y="21.109" width="75.503" height="56.564"/>
		</defs>
		<clipPath id="SVGID_3_">
			<use xlink:href="#SVGID_2_"  overflow="visible"/>
		</clipPath>
		<polygon clip-path="url(#SVGID_3_)" fill="#0073CF" points="89.378,34.053 88.729,41.515 95.799,43.992 92.761,50.839 
			98.643,55.476 93.546,60.966 97.605,67.262 91.001,70.799 92.796,78.072 85.401,79.275 84.736,86.734 77.353,85.471 
			74.302,92.312 67.728,88.719 62.621,94.199 57.569,88.666 50.96,92.189 47.98,85.316 40.585,86.504 39.998,79.037 32.617,77.758 
			34.485,70.504 27.921,66.898 32.044,60.645 27.005,55.102 32.936,50.525 29.969,43.647 37.064,41.245 36.492,33.776 
			43.983,33.808 45.867,26.558 52.942,29.02 57.078,22.774 62.97,27.4 68.909,22.836 72.98,29.125 80.08,26.736 81.889,34.006 		"/>
		<g clip-path="url(#SVGID_3_)">
			<path fill="#FFC400" d="M74.884,39.806c0.013-0.239,0.03-0.479,0.03-0.702h-24.52c0,0.223,0.016,0.463,0.029,0.702h-8.16
				c0,0,3.083,15.126,14.328,15.126c0.057,0,0.118-0.005,0.179-0.007c0.641,0.712,1.316,1.343,2.023,1.843
				c-0.498,0.012-0.898,0.41-0.898,0.906c0,0.505,0.408,0.912,0.911,0.912h1.202L57.26,70.152h-2.042v10.955h15.514V70.152h-2.047
				l-2.75-11.566h1.205c0.5,0,0.91-0.407,0.91-0.912c0-0.501-0.41-0.91-0.91-0.91h-0.621c0.705-0.5,1.376-1.13,2.019-1.839
				c0.057,0.002,0.119,0.007,0.175,0.007c11.247,0,14.333-15.126,14.333-15.126H74.884z M44.396,41.43h6.202
				c0.57,3.651,2.326,8.309,4.794,11.782C48.724,52.403,45.552,45.029,44.396,41.43z M68.538,71.656v7.617H57.235v-7.617H68.538z
				 M69.915,53.212c2.467-3.473,4.222-8.13,4.791-11.782h6.204C79.753,45.032,76.578,52.405,69.915,53.212z"/>
			<path fill="#FFE400" d="M55.218,70.152v10.955h7.343v-1.834h-5.325v-7.617c0,0,2.672,0,5.325,0V39.104H50.395
				c0,0.223,0.016,0.463,0.029,0.702h-8.16c0,0,3.083,15.126,14.328,15.126c0.057,0,0.118-0.005,0.179-0.007
				c0.641,0.712,1.316,1.343,2.023,1.843c-0.498,0.012-0.898,0.41-0.898,0.906c0,0.505,0.408,0.912,0.911,0.912h1.202L57.26,70.152
				H55.218z M44.396,41.43h6.202c0.57,3.651,2.326,8.309,4.794,11.782C48.724,52.403,45.552,45.029,44.396,41.43z"/>
			<path fill="#FFCF00" d="M57.235,79.273v-7.617c0,0,0.154,0,0.422,0c-0.015-0.07-0.022-0.146-0.004-0.227
				c0.721-3.121,1.26-5.549,1.931-8.566c0.436-1.96,0.677-3.314,0.991-4.622c-0.702,0.072-1.944,0.337-2.009-0.509
				c-0.072-0.969,0.969-0.818,1.018-0.822c-0.823-0.751-2.808-2.977-5.067-7.526c-0.951-1.916-2.37-6.968-2.622-10.281h-1.5
				c0,0.223,0.016,0.463,0.029,0.702h-8.16c0,0,3.083,15.126,14.328,15.126c0.057,0,0.118-0.005,0.179-0.007
				c0.641,0.712,1.316,1.343,2.023,1.843c-0.498,0.012-0.898,0.41-0.898,0.906c0,0.505,0.408,0.912,0.911,0.912h1.202L57.26,70.152
				h-2.042v10.955h7.343v-1.834H57.235z M44.396,41.43h6.202c0.57,3.651,2.326,8.309,4.794,11.782
				C48.724,52.403,45.552,45.029,44.396,41.43z"/>
			<path fill="#FFE400" d="M58.719,71.656h0.555c0.175-1.047,0.186-2.109,0.295-3.166c0.049-0.484,0.135-0.965,0.23-1.441
				C59.383,68.568,58.994,70.098,58.719,71.656z"/>
			<path fill="#FFCF00" d="M56.283,39.104c-0.114,3.242,0.167,5.859,1.465,9.491c1.98,5.532,4.014,7.565,4.014,8.897
				c0,3.375-1.141,12.145-1.386,14.164h2.185V39.104H56.283z"/>
			<rect x="52.421" y="80.99" fill="#001A36" width="20.467" height="2.68"/>
			<rect x="52.421" y="80.99" fill="#324B60" width="10.122" height="2.68"/>
			<path fill="#FFE400" d="M50.424,39.806h-8.16c0,0,0.918,4.651,3.819,8.966c2.902,4.313,6.295,5.438,6.854,5.592
				c2.635,0.726,3.834,0.562,3.834,0.562s-3.433-0.083-6.812-2.622c-2.547-1.914-4.467-5.078-5.65-8.018
				c-1.015-2.521-1.355-4.028-1.355-4.028l7.502,0.019L50.424,39.806z"/>
			<path fill="#FFE400" d="M74.884,39.806h8.161c0,0-1.13,5.567-4.565,9.958c-3.019,3.854-5.842,4.619-7.637,5.002
				c-1.795,0.382-2.306,0.159-2.306,0.159s1.408-0.044,2.782-0.446c1.7-0.496,4.582-1.909,7.178-5.612
				c2.967-4.23,3.513-8.399,3.513-8.399l-7.234-0.019L74.884,39.806z"/>
			<polygon fill="#FFE400" points="68.501,71.676 56.63,71.412 57.257,79.162 57.273,79.242 			"/>
			<rect x="57.235" y="71.656" fill="#F19000" width="11.303" height="7.617"/>
			<rect x="57.705" y="72.182" fill="#F7B033" width="10.664" height="6.904"/>
			<path fill="#FFFFFF" d="M50.275,39.769c0,0,1.214-0.096,1.884-0.861c0.674-0.771,0.846-1.739,0.846-1.739
				s0.207,1.148,1.021,1.771c0.728,0.555,1.772,0.781,1.772,0.781s-1.134,0.176-1.772,0.814c-0.638,0.639-0.973,1.819-0.973,1.819
				S52.621,39.801,50.275,39.769z"/>
		</g>
	</g>
	<g>
		<linearGradient id="SVGID_4_" gradientUnits="userSpaceOnUse" x1="21.2578" y1="83.9961" x2="34.1035" y2="83.9961">
			<stop  offset="0" style="stop-color:#4A4A4A"/>
			<stop  offset="1" style="stop-color:#D1D1D1"/>
		</linearGradient>
		<polygon fill="url(#SVGID_4_)" points="21.258,84.467 34.104,88.324 34.104,79.668 		"/>
		<g>
			
				<image overflow="visible" opacity="0.25" width="113" height="55" xlink:href="1987AA5B20E955CC.png"  transform="matrix(1 0 0 1 7 42.2168)">
			</image>
			<g>
				<polygon fill="#FED100" points="21.258,84.467 21.258,65.783 103.738,60.419 103.738,79.102 				"/>
			</g>
		</g>
		
			<text transform="matrix(0.9828 -0.0631 -0.1102 0.9939 23.9165 79.749)" fill="#002878" font-family="'TeutonNormal-Bold'" font-size="14.4686">TIM PALPITES</text>
	</g>
</g>
</svg>
