<?xml version="1.0" encoding="utf-8"?>
<!-- Generator: Adobe Illustrator 16.0.0, SVG Export Plug-In . SVG Version: 6.00 Build 0)  -->
<!DOCTYPE svg PUBLIC "-//W3C//DTD SVG 1.1//EN" "http://www.w3.org/Graphics/SVG/1.1/DTD/svg11.dtd">
<svg version="1.1" id="Layer_1" xmlns="http://www.w3.org/2000/svg" xmlns:xlink="http://www.w3.org/1999/xlink" x="0px" y="0px"
	 width="125px" height="125px" viewBox="0 0 125 125" enable-background="new 0 0 125 125" xml:space="preserve">
<g>
	
		<linearGradient id="SVGID_1_" gradientUnits="userSpaceOnUse" x1="-151.9995" y1="92.667" x2="-151.9995" y2="183.1208" gradientTransform="matrix(1 0 0 -1 214.5 217)">
		<stop  offset="0" style="stop-color:#0073CF"/>
		<stop  offset="0.1277" style="stop-color:#006AC5"/>
		<stop  offset="0.3478" style="stop-color:#0052A9"/>
		<stop  offset="0.6322" style="stop-color:#002B7C"/>
		<stop  offset="0.6493" style="stop-color:#002879"/>
	</linearGradient>
	<path fill="url(#SVGID_1_)" d="M113.939,19.569c-21.312,0-37.639-6.088-51.441-19.514C48.694,13.481,32.369,19.569,11.061,19.569
		c0,34.958-7.232,85.037,51.438,105.375C121.172,104.607,113.939,54.528,113.939,19.569z"/>
</g>
<g>
	<linearGradient id="SVGID_2_" gradientUnits="userSpaceOnUse" x1="95.7354" y1="57.1465" x2="108.9893" y2="57.1465">
		<stop  offset="0" style="stop-color:#4A4A4A"/>
		<stop  offset="1" style="stop-color:#D1D1D1"/>
	</linearGradient>
	<path fill="url(#SVGID_2_)" d="M99.408,64.412l9.581-8.702l-13.253-5.83c0,0-0.057,1.663,0.855,4.367
		C97.65,57.388,99.408,64.412,99.408,64.412z"/>
	<g>
		<defs>
			<rect id="SVGID_3_" x="22.136" y="12.227" width="83.332" height="62.429"/>
		</defs>
		<clipPath id="SVGID_4_">
			<use xlink:href="#SVGID_3_"  overflow="visible"/>
		</clipPath>
		<polygon clip-path="url(#SVGID_4_)" fill="#0073CF" points="93.137,26.512 92.421,34.748 100.223,37.481 96.869,45.039 
			103.36,50.158 97.737,56.216 102.215,63.166 94.929,67.069 96.907,75.096 88.748,76.422 88.012,84.656 79.863,83.263 
			76.495,90.813 69.241,86.847 63.604,92.895 58.03,86.789 50.735,90.679 47.446,83.093 39.283,84.402 38.635,76.16 30.489,74.749 
			32.552,66.743 25.305,62.763 29.856,55.862 24.295,49.744 30.841,44.693 27.567,37.101 35.398,34.45 34.766,26.208 43.034,26.242 
			45.114,18.24 52.922,20.957 57.487,14.064 63.989,19.17 70.545,14.133 75.039,21.073 82.874,18.438 84.868,26.461 		"/>
		<g clip-path="url(#SVGID_4_)">
			<path fill="#FFC400" d="M77.138,32.861c0.014-0.264,0.034-0.528,0.034-0.775H50.11c0,0.247,0.017,0.512,0.032,0.775h-9.005
				c0,0,3.403,16.694,15.812,16.694c0.063,0,0.131-0.004,0.198-0.006c0.707,0.784,1.452,1.481,2.234,2.034
				c-0.55,0.012-0.992,0.452-0.992,1c0,0.556,0.451,1.006,1.006,1.006h1.326l-3.034,12.768h-2.255v12.089h17.123V66.357h-2.258
				l-3.035-12.768h1.33c0.552,0,1.004-0.45,1.004-1.006c0-0.554-0.45-1.005-1.004-1.005h-0.687c0.778-0.552,1.52-1.247,2.229-2.029
				c0.062,0.002,0.131,0.006,0.192,0.006c12.412,0,15.819-16.694,15.819-16.694H77.138z M43.49,34.654h6.845
				c0.629,4.03,2.568,9.169,5.292,13.004C48.267,46.767,44.766,38.627,43.49,34.654z M70.135,68.014v8.408H57.66v-8.408H70.135z
				 M71.655,47.658c2.722-3.832,4.658-8.972,5.287-13.004h6.849C82.514,38.631,79.009,46.769,71.655,47.658z"/>
			<path fill="#FFE400" d="M55.432,66.357v12.089h8.105v-2.024H57.66v-8.408c0,0,2.95,0,5.877,0V32.086H50.11
				c0,0.247,0.017,0.512,0.032,0.775h-9.005c0,0,3.403,16.694,15.812,16.694c0.063,0,0.131-0.004,0.198-0.006
				c0.707,0.784,1.452,1.481,2.234,2.034c-0.55,0.012-0.992,0.452-0.992,1c0,0.556,0.451,1.006,1.006,1.006h1.326l-3.034,12.768
				H55.432z M43.49,34.654h6.845c0.629,4.03,2.568,9.169,5.292,13.004C48.267,46.767,44.766,38.627,43.49,34.654z"/>
			<path fill="#FFCF00" d="M57.66,76.422v-8.408c0,0,0.17,0,0.466,0c-0.018-0.077-0.024-0.159-0.005-0.248
				c0.796-3.444,1.391-6.124,2.13-9.455c0.482-2.164,0.748-3.658,1.095-5.1c-0.774,0.079-2.146,0.371-2.217-0.562
				c-0.079-1.068,1.07-0.903,1.122-0.908c-0.908-0.828-3.098-3.286-5.59-8.306c-1.052-2.115-2.618-7.691-2.896-11.349H50.11
				c0,0.247,0.017,0.512,0.032,0.775h-9.005c0,0,3.403,16.694,15.812,16.694c0.063,0,0.131-0.004,0.198-0.006
				c0.707,0.784,1.452,1.481,2.234,2.034c-0.55,0.012-0.992,0.452-0.992,1c0,0.556,0.451,1.006,1.006,1.006h1.326l-3.034,12.768
				h-2.255v12.089h8.105v-2.024H57.66z M43.49,34.654h6.845c0.629,4.03,2.568,9.169,5.292,13.004
				C48.267,46.767,44.766,38.627,43.49,34.654z"/>
			<path fill="#FFE400" d="M59.296,68.014h0.614c0.192-1.153,0.203-2.326,0.324-3.492c0.055-0.536,0.149-1.064,0.255-1.592
				C60.03,64.608,59.601,66.295,59.296,68.014z"/>
			<path fill="#FFCF00" d="M56.61,32.086c-0.127,3.58,0.182,6.467,1.617,10.476c2.185,6.107,4.429,8.351,4.429,9.82
				c0,3.725-1.259,13.404-1.528,15.631h2.41V32.086H56.61z"/>
			<rect x="52.346" y="78.319" fill="#001A36" width="22.591" height="2.955"/>
			<rect x="52.346" y="78.319" fill="#324B60" width="11.172" height="2.955"/>
			<path fill="#FFE400" d="M50.142,32.861h-9.005c0,0,1.013,5.134,4.216,9.895c3.202,4.761,6.947,6.002,7.562,6.173
				c2.909,0.801,4.232,0.62,4.232,0.62s-3.788-0.093-7.519-2.895c-2.809-2.112-4.93-5.604-6.236-8.848
				c-1.119-2.782-1.496-4.448-1.496-4.448l8.281,0.023L50.142,32.861z"/>
			<path fill="#FFE400" d="M77.138,32.861h9.009c0,0-1.248,6.145-5.04,10.991c-3.33,4.255-6.446,5.098-8.429,5.521
				c-1.979,0.421-2.543,0.176-2.543,0.176s1.553-0.049,3.07-0.493c1.875-0.547,5.057-2.107,7.922-6.195
				c3.273-4.668,3.876-9.269,3.876-9.269l-7.984-0.022L77.138,32.861z"/>
			<polygon fill="#FFE400" points="70.093,68.037 56.991,67.746 57.684,76.299 57.702,76.387 			"/>
			<rect x="57.66" y="68.014" fill="#F19000" width="12.475" height="8.408"/>
			<rect x="58.179" y="68.595" fill="#F7B033" width="11.77" height="7.619"/>
			<path fill="#FFFFFF" d="M49.979,32.821c0,0,1.338-0.106,2.078-0.951c0.745-0.851,0.935-1.92,0.935-1.92s0.229,1.268,1.127,1.956
				c0.801,0.612,1.957,0.862,1.957,0.862s-1.253,0.194-1.957,0.899c-0.705,0.705-1.075,2.007-1.075,2.007
				S52.568,32.857,49.979,32.821z"/>
		</g>
	</g>
	<g>
		<linearGradient id="SVGID_5_" gradientUnits="userSpaceOnUse" x1="17.9517" y1="81.6357" x2="32.1294" y2="81.6357">
			<stop  offset="0" style="stop-color:#4A4A4A"/>
			<stop  offset="1" style="stop-color:#D1D1D1"/>
		</linearGradient>
		<polygon fill="url(#SVGID_5_)" points="17.952,82.155 32.129,86.413 32.129,76.858 		"/>
		<g>
			
				<image overflow="visible" opacity="0.25" width="122" height="57" xlink:href="29F70A35FD624214.png"  transform="matrix(1 0 0 1 3 37.4736)">
			</image>
			<g>
				<polygon fill="#FED100" points="17.952,82.155 17.952,61.534 108.984,55.612 108.984,76.233 				"/>
			</g>
		</g>
		
			<text transform="matrix(0.9828 -0.0631 -0.1102 0.9939 20.8872 76.9463)" fill="#002878" font-family="'TeutonNormal-Bold'" font-size="15.9688">TIM PALPITES</text>
	</g>
</g>
</svg>
