<?xml version="1.0" encoding="utf-8"?>
<!-- Generator: Adobe Illustrator 16.0.0, SVG Export Plug-In . SVG Version: 6.00 Build 0)  -->
<!DOCTYPE svg PUBLIC "-//W3C//DTD SVG 1.1//EN" "http://www.w3.org/Graphics/SVG/1.1/DTD/svg11.dtd">
<svg version="1.1" id="Layer_1" xmlns="http://www.w3.org/2000/svg" xmlns:xlink="http://www.w3.org/1999/xlink" x="0px" y="0px"
	 width="100px" height="100px" viewBox="0 0 100 100" enable-background="new 0 0 100 100" xml:space="preserve">
<g>
	<g>
		
			<linearGradient id="SVGID_1_" gradientUnits="userSpaceOnUse" x1="-164.5005" y1="86.4229" x2="-164.5005" y2="188.3918" gradientTransform="matrix(1 0 0 -1 214.5 192)">
			<stop  offset="0" style="stop-color:#0073CF"/>
			<stop  offset="0.1277" style="stop-color:#006AC5"/>
			<stop  offset="0.3478" style="stop-color:#0052A9"/>
			<stop  offset="0.6322" style="stop-color:#002B7C"/>
			<stop  offset="0.6493" style="stop-color:#002879"/>
		</linearGradient>
		<path fill="url(#SVGID_1_)" d="M99.859,79.869c0,11.041-8.95,19.99-19.99,19.99h-59.74C9.09,99.859,0.14,90.91,0.14,79.869V20.127
			C0.14,9.091,9.09,0.14,20.129,0.14h59.74c11.04,0,19.99,8.951,19.99,19.988V79.869z"/>
	</g>
	<g>
		<linearGradient id="SVGID_2_" gradientUnits="userSpaceOnUse" x1="81.7969" y1="57.7715" x2="94.8311" y2="57.7715">
			<stop  offset="0" style="stop-color:#4A4A4A"/>
			<stop  offset="1" style="stop-color:#D1D1D1"/>
		</linearGradient>
		<path fill="url(#SVGID_2_)" d="M85.409,64.916l9.422-8.558l-13.033-5.732c0,0-0.056,1.636,0.842,4.297
			C83.681,58.01,85.409,64.916,85.409,64.916z"/>
		<g>
			<defs>
				<rect id="SVGID_3_" x="9.419" y="13.598" width="81.949" height="61.393"/>
			</defs>
			<clipPath id="SVGID_4_">
				<use xlink:href="#SVGID_3_"  overflow="visible"/>
			</clipPath>
			<polygon clip-path="url(#SVGID_4_)" fill="#0073CF" points="79.242,27.645 78.538,35.746 86.21,38.434 82.913,45.865 
				89.297,50.898 83.767,56.857 88.17,63.691 81.003,67.53 82.949,75.425 74.925,76.729 74.204,84.827 66.189,83.456 62.876,90.88 
				55.743,86.98 50.2,92.928 44.717,86.923 37.544,90.747 34.308,83.289 26.282,84.577 25.645,76.472 17.634,75.083 19.663,67.21 
				12.536,63.296 17.012,56.509 11.542,50.492 17.979,45.526 14.761,38.06 22.461,35.453 21.841,27.346 29.97,27.379 32.015,19.511 
				39.694,22.183 44.183,15.404 50.578,20.426 57.025,15.472 61.443,22.297 69.149,19.705 71.112,27.595 			"/>
			<g clip-path="url(#SVGID_4_)">
				<path fill="#FFC400" d="M63.509,33.89c0.014-0.26,0.032-0.519,0.032-0.761H36.929c0,0.242,0.016,0.501,0.03,0.761h-8.854
					c0,0,3.345,16.417,15.55,16.417c0.062,0,0.128-0.006,0.194-0.006c0.696,0.771,1.43,1.457,2.197,2
					c-0.541,0.012-0.975,0.443-0.975,0.982c0,0.547,0.443,0.99,0.987,0.99h1.307l-2.984,12.555h-2.217v11.889h16.839V66.829H56.78
					l-2.984-12.555h1.308c0.544,0,0.989-0.443,0.989-0.99c0-0.544-0.443-0.988-0.989-0.988h-0.673
					c0.764-0.543,1.492-1.226,2.189-1.994c0.064,0,0.13,0.006,0.191,0.006c12.207,0,15.555-16.417,15.555-16.417H63.509z
					 M30.419,35.654h6.731c0.618,3.962,2.524,9.017,5.204,12.789C35.114,47.563,31.673,39.561,30.419,35.654z M56.62,68.46v8.27
					H44.354v-8.27H56.62z M58.116,48.442c2.677-3.77,4.582-8.825,5.201-12.789h6.734C68.795,39.563,65.349,47.565,58.116,48.442z"/>
				<path fill="#FFE400" d="M42.164,66.829v11.889h7.968v-1.988h-5.777v-8.27c0,0,2.899,0,5.777,0V33.129H36.929
					c0,0.242,0.016,0.501,0.03,0.761h-8.854c0,0,3.345,16.417,15.55,16.417c0.062,0,0.128-0.006,0.194-0.006
					c0.696,0.771,1.43,1.457,2.197,2c-0.541,0.012-0.975,0.443-0.975,0.982c0,0.547,0.443,0.99,0.987,0.99h1.307l-2.984,12.555
					H42.164z M30.419,35.654h6.731c0.618,3.962,2.524,9.017,5.204,12.789C35.114,47.563,31.673,39.561,30.419,35.654z"/>
				<path fill="#FFCF00" d="M44.354,76.729v-8.27c0,0,0.167,0,0.457,0c-0.016-0.074-0.025-0.157-0.004-0.243
					c0.781-3.389,1.367-6.024,2.095-9.3c0.474-2.127,0.735-3.598,1.077-5.016c-0.762,0.078-2.111,0.364-2.18-0.552
					c-0.078-1.052,1.05-0.889,1.103-0.894c-0.894-0.814-3.048-3.23-5.499-8.17c-1.032-2.079-2.572-7.561-2.847-11.157h-1.628
					c0,0.242,0.016,0.501,0.03,0.761h-8.854c0,0,3.345,16.417,15.55,16.417c0.062,0,0.128-0.006,0.194-0.006
					c0.696,0.771,1.43,1.457,2.197,2c-0.541,0.012-0.975,0.443-0.975,0.982c0,0.547,0.443,0.99,0.987,0.99h1.307l-2.984,12.555
					h-2.217v11.889h7.968v-1.988H44.354z M30.419,35.654h6.731c0.618,3.962,2.524,9.017,5.204,12.789
					C35.114,47.563,31.673,39.561,30.419,35.654z"/>
				<path fill="#FFE400" d="M45.964,68.46h0.603c0.19-1.135,0.2-2.287,0.319-3.434c0.055-0.529,0.146-1.049,0.252-1.566
					C46.685,65.11,46.263,66.769,45.964,68.46z"/>
				<path fill="#FFCF00" d="M43.321,33.129c-0.126,3.518,0.18,6.357,1.591,10.3c2.147,6.006,4.354,8.213,4.354,9.657
					c0,3.664-1.237,13.183-1.504,15.374h2.369V33.129H43.321z"/>
				<rect x="39.128" y="78.593" fill="#001A36" width="22.215" height="2.909"/>
				<rect x="39.128" y="78.593" fill="#324B60" width="10.988" height="2.909"/>
				<path fill="#FFE400" d="M36.959,33.89h-8.854c0,0,0.996,5.048,4.146,9.731c3.148,4.683,6.832,5.903,7.437,6.071
					c2.858,0.787,4.161,0.609,4.161,0.609s-3.726-0.092-7.393-2.847c-2.764-2.077-4.848-5.512-6.133-8.703
					c-1.103-2.735-1.473-4.372-1.473-4.372l8.145,0.021L36.959,33.89z"/>
				<path fill="#FFE400" d="M63.509,33.89h8.857c0,0-1.227,6.043-4.955,10.809c-3.274,4.185-6.34,5.013-8.288,5.429
					c-1.948,0.414-2.503,0.174-2.503,0.174s1.528-0.049,3.021-0.485c1.843-0.538,4.973-2.071,7.789-6.092
					c3.221-4.591,3.812-9.116,3.812-9.116l-7.852-0.021L63.509,33.89z"/>
				<polygon fill="#FFE400" points="56.581,68.483 43.696,68.196 44.377,76.606 44.396,76.693 				"/>
				<rect x="44.354" y="68.46" fill="#F19000" width="12.266" height="8.27"/>
				<rect x="44.862" y="69.03" fill="#F7B033" width="11.576" height="7.494"/>
				<path fill="#FFFFFF" d="M36.8,33.85c0,0,1.317-0.104,2.045-0.935c0.731-0.837,0.918-1.889,0.918-1.889s0.225,1.247,1.107,1.923
					c0.787,0.602,1.924,0.849,1.924,0.849s-1.23,0.191-1.924,0.883s-1.056,1.975-1.056,1.975S39.347,33.885,36.8,33.85z"/>
			</g>
		</g>
		<g>
			<linearGradient id="SVGID_5_" gradientUnits="userSpaceOnUse" x1="5.3042" y1="81.8545" x2="19.2471" y2="81.8545">
				<stop  offset="0" style="stop-color:#4A4A4A"/>
				<stop  offset="1" style="stop-color:#D1D1D1"/>
			</linearGradient>
			<polygon fill="url(#SVGID_5_)" points="5.304,82.366 19.247,86.552 19.247,77.157 			"/>
			<g>
				
					<image overflow="visible" opacity="0.25" width="121" height="57" xlink:href="35B4E0298AF33316.png"  transform="matrix(1 0 0 1 -9.5 37.5)">
				</image>
				<g>
					<polygon fill="#FED100" points="5.304,82.366 5.304,62.087 94.826,56.265 94.826,76.543 					"/>
				</g>
			</g>
			
				<text transform="matrix(0.9828 -0.0631 -0.1101 0.9939 17.9058 76.9375)" fill="#002878" font-family="'TeutonNormal-Bold'" font-size="16.5788">PALPITES</text>
		</g>
	</g>
</g>
</svg>
