<?xml version="1.0" encoding="utf-8"?>
<!-- Generator: Adobe Illustrator 16.0.0, SVG Export Plug-In . SVG Version: 6.00 Build 0)  -->
<!DOCTYPE svg PUBLIC "-//W3C//DTD SVG 1.1//EN" "http://www.w3.org/Graphics/SVG/1.1/DTD/svg11.dtd">
<svg version="1.1" id="Layer_1" xmlns="http://www.w3.org/2000/svg" xmlns:xlink="http://www.w3.org/1999/xlink" x="0px" y="0px"
	 width="125px" height="125px" viewBox="0 0 125 125" enable-background="new 0 0 125 125" xml:space="preserve">
<g>
	
		<linearGradient id="SVGID_1_" gradientUnits="userSpaceOnUse" x1="-366.4995" y1="840.332" x2="-366.4995" y2="749.8789" gradientTransform="matrix(1 0 0 1 429 -716)">
		<stop  offset="0" style="stop-color:#0073CF"/>
		<stop  offset="0.1277" style="stop-color:#006AC5"/>
		<stop  offset="0.3478" style="stop-color:#0052A9"/>
		<stop  offset="0.6322" style="stop-color:#002B7C"/>
		<stop  offset="0.6493" style="stop-color:#002879"/>
	</linearGradient>
	<path fill="url(#SVGID_1_)" d="M113.939,19.569c-21.312,0-37.64-6.088-51.441-19.514C48.694,13.481,32.369,19.569,11.061,19.569
		c0,34.958-7.232,85.037,51.438,105.375C121.172,104.607,113.939,54.528,113.939,19.569z"/>
</g>
<g>
	<linearGradient id="SVGID_2_" gradientUnits="userSpaceOnUse" x1="95.4688" y1="56.6855" x2="108.5605" y2="56.6855">
		<stop  offset="0" style="stop-color:#4A4A4A"/>
		<stop  offset="1" style="stop-color:#D1D1D1"/>
	</linearGradient>
	<path fill="url(#SVGID_2_)" d="M99.097,63.863l9.464-8.597L95.47,49.508c0,0-0.057,1.645,0.844,4.316
		C97.36,56.925,99.097,63.863,99.097,63.863z"/>
	<g>
		<defs>
			<rect id="SVGID_3_" x="22.769" y="12.315" width="82.313" height="61.667"/>
		</defs>
		<clipPath id="SVGID_4_">
			<use xlink:href="#SVGID_3_"  overflow="visible"/>
		</clipPath>
		<polygon clip-path="url(#SVGID_4_)" fill="#0073CF" points="92.904,26.425 92.195,34.562 99.9,37.262 96.59,44.727 
			103.004,49.782 97.447,55.769 101.87,62.634 94.67,66.486 96.626,74.417 88.566,75.729 87.841,83.862 79.791,82.483 
			76.464,89.941 69.297,86.025 63.73,91.998 58.223,85.969 51.019,89.808 47.767,82.318 39.706,83.611 39.065,75.47 31.019,74.074 
			33.058,66.164 25.897,62.236 30.394,55.417 24.898,49.374 31.365,44.385 28.133,36.886 35.868,34.268 35.244,26.125 43.41,26.158 
			45.464,18.254 53.178,20.938 57.687,14.129 64.111,19.173 70.586,14.197 75.023,21.052 82.763,18.449 84.735,26.374 		"/>
		<g clip-path="url(#SVGID_4_)">
			<path fill="#FFC400" d="M77.098,32.698c0.015-0.261,0.034-0.522,0.034-0.765H50.399c0,0.243,0.017,0.504,0.032,0.765h-8.895
				c0,0,3.359,16.49,15.619,16.49c0.062,0,0.128-0.006,0.196-0.006c0.699,0.775,1.436,1.463,2.206,2.009
				c-0.542,0.012-0.979,0.446-0.979,0.987c0,0.55,0.444,0.994,0.991,0.994h1.312l-2.997,12.611h-2.228v11.942h16.913V65.784H70.34
				l-2.998-12.611h1.314c0.545,0,0.993-0.444,0.993-0.994c0-0.547-0.446-0.992-0.993-0.992h-0.678
				c0.768-0.546,1.499-1.232,2.199-2.004c0.065,0,0.132,0.006,0.193,0.006c12.262,0,15.625-16.49,15.625-16.49H77.098z
				 M43.861,34.47h6.762c0.621,3.979,2.536,9.057,5.227,12.845C48.578,46.432,45.121,38.394,43.861,34.47z M70.178,67.422v8.308
				H57.859v-8.308H70.178z M71.682,47.314c2.689-3.787,4.602-8.864,5.225-12.845h6.766C82.409,38.395,78.947,46.434,71.682,47.314z"
				/>
			<path fill="#FFE400" d="M55.658,65.784v11.942h8.003v-1.997h-5.802v-8.308c0,0,2.912,0,5.802,0V31.933H50.399
				c0,0.243,0.017,0.504,0.032,0.765h-8.895c0,0,3.359,16.49,15.619,16.49c0.062,0,0.128-0.006,0.196-0.006
				c0.699,0.775,1.436,1.463,2.206,2.009c-0.542,0.012-0.979,0.446-0.979,0.987c0,0.55,0.444,0.994,0.991,0.994h1.312l-2.997,12.611
				H55.658z M43.861,34.47h6.762c0.621,3.979,2.536,9.057,5.227,12.845C48.578,46.432,45.121,38.394,43.861,34.47z"/>
			<path fill="#FFCF00" d="M57.859,75.729v-8.308c0,0,0.168,0,0.459,0c-0.016-0.074-0.025-0.157-0.004-0.242
				c0.784-3.405,1.373-6.054,2.105-9.344c0.474-2.137,0.737-3.613,1.081-5.037c-0.766,0.078-2.121,0.366-2.189-0.556
				c-0.079-1.055,1.055-0.891,1.108-0.896c-0.899-0.818-3.063-3.245-5.525-8.206c-1.036-2.089-2.584-7.595-2.859-11.208h-1.636
				c0,0.243,0.017,0.504,0.032,0.765h-8.895c0,0,3.359,16.49,15.619,16.49c0.062,0,0.128-0.006,0.196-0.006
				c0.699,0.775,1.436,1.463,2.206,2.009c-0.542,0.012-0.979,0.446-0.979,0.987c0,0.55,0.444,0.994,0.991,0.994h1.312l-2.997,12.611
				h-2.228v11.942h8.003v-1.997H57.859z M43.861,34.47h6.762c0.621,3.979,2.536,9.057,5.227,12.845
				C48.578,46.432,45.121,38.394,43.861,34.47z"/>
			<path fill="#FFE400" d="M59.476,67.422h0.605c0.192-1.14,0.2-2.297,0.32-3.448c0.056-0.533,0.147-1.055,0.252-1.574
				C60.199,64.057,59.777,65.723,59.476,67.422z"/>
			<path fill="#FFCF00" d="M56.822,31.933c-0.127,3.532,0.181,6.385,1.598,10.346c2.156,6.033,4.373,8.25,4.373,9.7
				c0,3.681-1.241,13.241-1.511,15.442h2.38V31.933H56.822z"/>
			<rect x="52.61" y="77.6" fill="#001A36" width="22.312" height="2.923"/>
			<rect x="52.61" y="77.6" fill="#324B60" width="11.035" height="2.923"/>
			<path fill="#FFE400" d="M50.432,32.698h-8.895c0,0,1,5.071,4.164,9.774c3.163,4.704,6.863,5.929,7.47,6.097
				c2.872,0.791,4.18,0.613,4.18,0.613s-3.743-0.092-7.426-2.859c-2.776-2.087-4.87-5.537-6.16-8.742
				c-1.107-2.746-1.479-4.391-1.479-4.391l8.18,0.021L50.432,32.698z"/>
			<path fill="#FFE400" d="M77.098,32.698h8.898c0,0-1.231,6.07-4.979,10.857c-3.287,4.202-6.369,5.034-8.323,5.452
				c-1.96,0.417-2.517,0.175-2.517,0.175s1.537-0.049,3.036-0.488c1.853-0.541,4.994-2.081,7.823-6.119
				c3.236-4.612,3.83-9.157,3.83-9.157l-7.887-0.02L77.098,32.698z"/>
			<polygon fill="#FFE400" points="70.14,67.446 57.199,67.156 57.881,75.604 57.9,75.693 			"/>
			<rect x="57.859" y="67.422" fill="#F19000" width="12.319" height="8.308"/>
			<rect x="58.368" y="67.994" fill="#F7B033" width="11.627" height="7.527"/>
			<path fill="#FFFFFF" d="M50.271,32.657c0,0,1.323-0.105,2.054-0.938c0.734-0.842,0.921-1.897,0.921-1.897s0.227,1.252,1.114,1.93
				c0.791,0.605,1.932,0.854,1.932,0.854s-1.235,0.192-1.932,0.887c-0.696,0.695-1.06,1.983-1.06,1.983S52.829,32.692,50.271,32.657
				z"/>
		</g>
	</g>
	<g>
		<linearGradient id="SVGID_5_" gradientUnits="userSpaceOnUse" x1="18.6343" y1="80.877" x2="32.6396" y2="80.877">
			<stop  offset="0" style="stop-color:#4A4A4A"/>
			<stop  offset="1" style="stop-color:#D1D1D1"/>
		</linearGradient>
		<polygon fill="url(#SVGID_5_)" points="18.634,81.391 32.64,85.594 32.64,76.159 		"/>
		<g>
			
				<image overflow="visible" opacity="0.25" width="121" height="57" xlink:href="29F70A35FD624212.png"  transform="matrix(1 0 0 1 4 37)">
			</image>
			<g>
				<polygon fill="#FED100" points="18.634,81.391 18.634,61.021 108.557,55.173 108.557,75.542 				"/>
			</g>
		</g>
		
			<text transform="matrix(0.9828 -0.0631 -0.1101 0.9939 31.2939 75.9365)" fill="#002878" font-family="'TeutonNormal-Bold'" font-size="16.653">PALPITES</text>
	</g>
</g>
</svg>
