<?xml version="1.0" encoding="utf-8"?>
<!-- Generator: Adobe Illustrator 16.0.0, SVG Export Plug-In . SVG Version: 6.00 Build 0)  -->
<!DOCTYPE svg PUBLIC "-//W3C//DTD SVG 1.1//EN" "http://www.w3.org/Graphics/SVG/1.1/DTD/svg11.dtd">
<svg version="1.1" id="Layer_1" xmlns="http://www.w3.org/2000/svg" xmlns:xlink="http://www.w3.org/1999/xlink" x="0px" y="0px"
	 width="171.145px" height="57.278px" viewBox="0 0 171.145 57.278" enable-background="new 0 0 171.145 57.278"
	 xml:space="preserve">
<g>
	<path fill="#134A86" d="M167.496,10.457C162.548,8.097,140.92-0.346,85.414,0.011C30.13,0.367,8.631,8.22,3.623,10.457
		C1.521,11.359,0,13.496,0,15.947v25.414c0,2.455,1.521,4.561,3.623,5.463c5.008,2.232,26.507,10.084,81.791,10.443
		c54.633,0.354,76.457-7.826,81.855-10.314c2.264-0.838,3.875-3.043,3.875-5.592V15.947
		C171.145,13.458,169.66,11.359,167.496,10.457"/>
	<path fill="#E2231A" d="M63.808,24.972c0,0-2.231,0.219-3.824-1.967c-1.056-1.447-2.815-3.998-2.815-3.998
		s-9.586,3.461-12.923,4.447c-5.722,1.682-9.568,1.518-11.089,1.518H22.865l-1.547,7.213h10.228c1.521,0,6.946-0.1,11.086-1.52
		c3.29-1.129,15.096-5.408,15.096-5.408l3.376,4.588c0,0,1.346,2.346,5.19,2.346h5.852l1.539-7.219H63.808z"/>
	<path fill="#E2231A" d="M61.244,36.843c0,0-2.231,0.219-3.827-1.973c-1.054-1.441-2.813-3.998-2.813-3.998
		s-9.587,3.465-12.925,4.445c-5.717,1.686-9.566,1.521-11.089,1.521H20.298l-1.545,7.215H28.98c1.519,0,6.949-0.102,11.086-1.523
		c3.292-1.127,15.098-5.406,15.098-5.406l3.374,4.59c0,0,1.349,2.342,5.19,2.342h6.092l1.538-7.213H61.244z"/>
	<path fill="#E2231A" d="M66.31,13.103c0,0-2.227,0.223-3.825-1.967c-1.42-1.949-1.319-1.832-2.812-3.998
		c0,0-9.589,3.465-12.925,4.445c-5.719,1.684-9.567,1.52-11.087,1.52H25.369l-1.543,7.211h10.22c1.523,0,6.952-0.098,11.092-1.518
		c3.289-1.133,15.097-5.41,15.097-5.41l3.375,4.592c0,0,1.344,2.344,5.191,2.344h5.854l1.538-7.219H66.31z"/>
	<polygon fill="#FFFFFF" points="102.531,20.332 95.533,20.332 90.602,44.187 82.778,44.187 87.711,20.332 80.715,20.332 
		82.173,13.058 103.962,13.058 	"/>
	<polygon fill="#FFFFFF" points="102.523,44.187 108.918,13.058 116.825,13.058 110.433,44.187 	"/>
	<path fill="#FFFFFF" d="M143.197,13.058h8.668l-3.631,31.129h-6.764c0,0,1.802-16.104,2.318-18.781
		c0.043,0-8.648,18.781-8.648,18.781h-5.675l-1.237-18.848h-0.044c-0.614,3.027-5.247,18.848-5.247,18.848h-7.243l9.335-31.129
		h8.711l0.797,18.223"/>
</g>
</svg>
