<svg width="186" height="185" viewBox="0 0 186 185" fill="none" xmlns="http://www.w3.org/2000/svg">
<g clip-path="url(#clip0_206_3513)">
<path d="M136.068 140.173C134.261 139.484 132.896 140.291 131.628 141.569C126.48 146.736 121.242 151.819 116.138 157.025C114.83 158.358 114.101 158.599 112.652 157.103C107.532 151.813 102.232 146.685 97.0113 141.49C95.6751 140.162 94.2211 139.451 92.3348 140.297C90.5439 141.098 90.1396 142.589 90.1396 144.371C90.1621 156.319 90.1396 168.261 90.1565 180.209C90.1565 182.994 91.5039 184.501 93.8842 184.484C96.2814 184.468 97.539 183.005 97.539 180.147C97.5502 171.797 97.539 163.453 97.539 155.103V152.519C101.604 156.56 105.264 160.208 108.936 163.85C112.708 167.594 115.858 167.616 119.563 163.918C123.24 160.247 126.901 156.554 130.572 152.872C130.746 152.939 130.92 153.007 131.094 153.068V155.142C131.094 163.419 131.094 171.696 131.094 179.968C131.094 183.005 132.324 184.49 134.788 184.479C137.158 184.473 138.471 183.005 138.477 180.153C138.499 168.205 138.477 156.263 138.499 144.315C138.499 142.421 137.949 140.885 136.057 140.168L136.068 140.173Z" fill="#0090EA"/>
<path d="M159.715 139.361C147.701 142.079 140.11 153.41 142.463 165.123C144.877 177.149 156.296 184.91 168.529 182.607C175.984 181.2 181.363 176.885 184.568 170.02C185.528 167.958 184.883 166.098 183.075 165.251C181.256 164.4 179.476 165.1 178.393 167.09C178.118 167.594 177.876 168.115 177.584 168.614C173.492 175.608 164.633 178.208 157.39 174.554C150.12 170.883 146.892 162.248 150.233 154.895C152.882 149.061 157.626 145.856 164.038 145.693C169.781 145.548 174.289 148.12 177.629 153.332C171.263 153.332 165.318 153.354 159.378 153.32C157.783 153.309 156.532 153.769 155.83 155.265C154.645 157.787 156.414 160.135 159.642 160.157C167.035 160.208 174.429 160.202 181.817 160.157C185.242 160.135 186.623 158.207 185.719 154.884C182.721 143.827 170.96 136.811 159.703 139.355L159.715 139.361Z" fill="#0090EA"/>
<path d="M40.5393 157.423C34.5996 157.361 28.6543 157.4 22.709 157.417C22.0633 157.417 21.3953 157.473 20.7777 157.647C19.2058 158.078 18.3749 159.126 18.3131 160.779C18.257 162.399 18.9195 163.537 20.4465 164.175C21.2774 164.523 22.1419 164.495 23.0121 164.495C28.076 164.495 33.1455 164.495 38.361 164.495C36.2389 173.114 27.7279 178.37 19.5033 176.431C10.7285 174.364 5.29409 165.896 7.33762 157.462C10.2569 145.391 24.4213 141.121 33.8866 149.459C35.7224 151.079 37.6536 151.163 39.0796 149.695C40.5168 148.21 40.3652 146.147 38.6979 144.533C31.9385 137.982 21.2549 136.396 12.7047 140.678C3.97479 145.049 -1.11718 154.486 0.213355 163.85C1.97056 176.179 12.6878 184.053 24.0395 183.621C34.9252 183.207 44.4354 174.436 45.6705 163.116C46.1309 158.885 44.9183 157.473 40.5393 157.428V157.423Z" fill="#0090EA"/>
<path d="M69.3898 142.757C68.5982 141.036 67.7112 139.563 65.5329 139.512C63.3266 139.462 62.4058 140.924 61.6087 142.645C56.0114 154.772 50.3805 166.888 44.772 179.009C43.5931 181.554 44.2162 183.778 46.3159 184.669C48.4156 185.555 50.3075 184.641 51.4865 182.114C54.097 176.515 56.6795 170.906 59.2844 165.307C61.3055 160.959 63.3378 156.616 65.4711 152.043C65.8248 152.777 66.0438 153.22 66.2515 153.662C70.6698 163.172 75.0937 172.677 79.4951 182.198C80.1014 183.509 80.8706 184.574 82.3807 184.849C83.846 185.112 85.1204 184.753 86.0636 183.549C87.1808 182.12 86.9674 180.651 86.2488 179.105C80.6123 166.994 74.987 154.878 69.3898 142.751V142.757Z" fill="#0090EA"/>
<path d="M70.1985 89.3449C68.2785 88.594 66.903 89.5579 65.595 90.8636C60.3907 96.0809 55.1023 101.209 49.9542 106.476C48.7191 107.737 48.0847 107.58 46.945 106.42C41.6734 101.069 36.3063 95.8176 30.9842 90.5161C29.6929 89.2328 28.2614 88.6612 26.4761 89.4458C24.7638 90.1967 24.3147 91.5977 24.3259 93.3126C24.354 97.8462 24.3371 102.38 24.3371 106.914C24.3371 114.468 24.3147 122.022 24.3483 129.576C24.3596 132.838 27.0431 134.653 29.7154 133.275C31.3379 132.44 31.7477 130.994 31.7421 129.29C31.7196 120.873 31.7252 112.456 31.7421 104.033C31.7421 103.433 31.5568 102.778 32.0733 102.044C35.8235 105.776 39.4951 109.43 43.1723 113.078C46.8496 116.726 49.9934 116.737 53.6314 113.128C57.3984 109.385 61.1655 105.636 65.2974 101.528V103.674C65.2974 112.31 65.2918 120.94 65.2974 129.576C65.2974 131.941 66.3753 133.353 68.3234 133.611C71.0406 133.975 72.6799 132.311 72.6799 129.083C72.6968 117.281 72.6743 105.484 72.6968 93.6824C72.6968 91.7098 72.1634 90.1071 70.1985 89.3393V89.3449Z" fill="#0090EA"/>
<path d="M153.601 111.901C152.355 110.713 152.428 110.097 153.623 108.948C158.053 104.694 162.398 100.362 166.704 95.9857C169.107 93.5424 168.332 89.9109 165.323 89.0423C163.426 88.4987 161.96 89.2273 160.641 90.5442C156.402 94.7865 152.102 98.9614 147.914 103.243C146.802 104.381 146.185 104.588 144.95 103.31C140.79 98.9951 136.484 94.8201 132.223 90.6058C130.106 88.5099 127.641 88.2802 125.901 89.9838C124.166 91.6818 124.391 94.1476 126.485 96.2323C130.785 100.514 135.052 104.823 139.425 109.026C140.554 110.108 140.453 110.668 139.386 111.699C135.069 115.863 130.847 120.117 126.603 124.348C124.441 126.505 124.155 129.111 125.867 130.815C127.591 132.524 130.173 132.255 132.363 130.092C136.579 125.928 140.812 121.787 144.95 117.556C146.084 116.396 146.729 116.216 147.964 117.494C152.181 121.854 156.548 126.068 160.837 130.355C161.736 131.252 162.668 132.003 163.813 131.913C165.817 131.947 167.148 131.157 167.816 129.543C168.546 127.772 168.091 126.191 166.71 124.83C162.336 120.52 158.042 116.132 153.601 111.896V111.901Z" fill="#0090EA"/>
<path d="M101.441 90.9645C100.778 89.5355 99.6946 88.7117 98.0665 88.6781C96.3373 88.6444 95.1977 89.5131 94.5015 91.0093C88.691 103.518 82.8748 116.02 77.0979 128.539C76.0481 130.809 76.6993 132.759 78.6249 133.695C80.6628 134.681 82.6951 133.936 83.7955 131.678C85.0867 129.033 86.2825 126.337 87.5232 123.67C90.9366 116.323 94.3556 108.981 97.9654 101.203C98.5044 102.318 98.8581 103.024 99.1893 103.742C103.484 112.994 107.768 122.252 112.085 131.487C113.196 133.869 115.105 134.687 117.166 133.796C119.164 132.933 119.9 130.843 118.822 128.5C113.05 115.975 107.234 103.473 101.435 90.9589L101.441 90.9645Z" fill="#0090EA"/>
<path d="M150.89 27.611C150.255 23.4808 149.683 19.3955 147.645 15.624C141.694 4.59529 128.782 -1.59155 115.633 0.38667C103.131 2.26962 92.61 12.1607 90.3869 24.3158C89.7356 27.88 89.7076 31.5562 89.0283 35.1148C87.0409 45.5719 77.8282 53.2662 67.1446 53.6081C56.3263 53.9555 46.5409 46.7712 43.79 36.4598C41.0616 26.2212 46.0862 14.9459 55.5459 10.0704C64.8933 5.25096 76.8962 7.56542 83.8296 15.5231C84.8626 16.7112 85.8788 17.9217 87.2037 19.474C87.5686 18.6222 87.6977 18.3364 87.8156 18.0449C88.3658 16.6495 88.7925 15.1981 89.4886 13.8812C90.4486 12.0598 89.9602 10.8382 88.5342 9.45398C79.3384 0.487543 68.4134 -2.17437 56.388 1.78768C44.5535 5.68247 37.6763 14.3239 35.7956 26.6527C35.0657 31.433 33.8363 36.0507 32.2306 40.6067C29.4573 48.4636 26.6278 56.3092 24.1576 64.2669C22.4397 69.7981 24.7583 74.9034 29.7829 78.0528C34.8917 81.2583 40.2195 80.9669 44.7837 77.4196C50.4708 72.998 56.2252 68.6717 61.9853 64.3454C64.7867 62.2439 67.9474 61.0951 71.4618 60.5907C85.7777 58.5396 96.6859 46.1099 96.9216 31.7524C96.9722 28.5077 97.5897 25.375 98.7911 22.3656C103.007 11.7909 113.708 6.0075 125.183 8.09781C135.777 10.0256 144.029 19.9951 143.968 30.7773C143.911 39.867 137.77 48.542 128.86 52.1062C120.31 55.5247 110.468 53.2606 103.625 46.3565C102.3 45.0171 101.362 43.2855 99.5883 42.2599C98.7631 44.0868 98.0894 45.9025 97.1406 47.5669C96.3041 49.0408 96.568 50.0663 97.7132 51.1983C102.474 55.9113 107.824 59.5708 114.657 60.4618C118.873 61.011 122.398 62.8323 125.688 65.3877C131.038 69.5403 136.45 73.6088 141.907 77.6213C144.742 79.706 147.813 81.0454 151.547 80.1263C160.215 77.9912 164.274 70.6051 161.579 62.171C157.907 50.6828 152.748 39.6372 150.89 27.5998V27.611Z" fill="#0191EA"/>
<path d="M129.584 35.4959C132.7 35.339 135.17 32.6827 135.108 29.5724C135.041 26.3669 132.576 24.0189 129.303 24.0469C126.07 24.0693 123.594 26.5127 123.571 29.6957C123.549 32.8564 126.451 35.6584 129.584 35.4959Z" fill="#FC6B01"/>
<path d="M108.161 24.0469C104.994 24.1477 102.563 26.7256 102.642 29.8975C102.721 33.0077 105.398 35.5743 108.492 35.5071C111.602 35.4342 114.196 32.8004 114.185 29.7181C114.173 26.4286 111.529 23.9404 108.155 24.0469H108.161Z" fill="#FC0202"/>
<path d="M119.26 13.2423C116.116 13.1694 113.292 16.0275 113.371 19.1938C113.449 22.3656 115.964 24.7249 119.232 24.6913C122.505 24.6577 124.93 22.276 124.941 19.0649C124.953 16.0163 122.314 13.3039 119.254 13.2367L119.26 13.2423Z" fill="#01FC01"/>
<path d="M119.086 34.4479C116.054 34.4927 113.393 37.1995 113.388 40.2537C113.388 43.4424 115.824 45.8689 119.075 45.9025C122.359 45.9362 124.846 43.6105 124.941 40.4274C125.031 37.2723 122.224 34.4031 119.086 34.4479Z" fill="#0191EA"/>
<path d="M75.3242 26.3557H70.1873C68.9915 26.3557 68.0203 25.3862 68.0203 24.1926V19.0649C68.0203 17.7647 66.9649 16.7112 65.6624 16.7112H63.6862C62.3838 16.7112 61.3283 17.7647 61.3283 19.0649V24.1926C61.3283 25.3862 60.3571 26.3557 59.1613 26.3557H54.0244C52.722 26.3557 51.6665 27.4093 51.6665 28.7094V30.682C51.6665 31.9821 52.722 33.0357 54.0244 33.0357H59.1613C60.3571 33.0357 61.3283 34.0052 61.3283 35.1989V40.3265C61.3283 41.6267 62.3838 42.6802 63.6862 42.6802H65.6624C66.9649 42.6802 68.0203 41.6267 68.0203 40.3265V35.1989C68.0203 34.0052 68.9915 33.0357 70.1873 33.0357H75.3242C76.6267 33.0357 77.6821 31.9821 77.6821 30.682V28.7094C77.6821 27.4093 76.6267 26.3557 75.3242 26.3557Z" fill="#0191EA"/>
</g>
<defs>
<clipPath id="clip0_206_3513">
<rect width="186" height="185" fill="white"/>
</clipPath>
</defs>
</svg>
