<?xml version="1.0" encoding="utf-8"?>
<!-- Generator: Adobe Illustrator 16.0.0, SVG Export Plug-In . SVG Version: 6.00 Build 0)  -->
<!DOCTYPE svg PUBLIC "-//W3C//DTD SVG 1.1//EN" "http://www.w3.org/Graphics/SVG/1.1/DTD/svg11.dtd">
<svg version="1.1" id="Layer_1" xmlns="http://www.w3.org/2000/svg" xmlns:xlink="http://www.w3.org/1999/xlink" x="0px" y="0px"
	 width="125px" height="125px" viewBox="0 0 125 125" enable-background="new 0 0 125 125" xml:space="preserve">
<g>
	<linearGradient id="SVGID_1_" gradientUnits="userSpaceOnUse" x1="62.5005" y1="124.334" x2="62.5005" y2="33.8795">
		<stop  offset="0" style="stop-color:#00C6D7;stop-opacity:0.9"/>
		<stop  offset="1" style="stop-color:#005C84"/>
	</linearGradient>
	<path fill="url(#SVGID_1_)" d="M113.939,19.569c-21.312,0-37.638-6.088-51.441-19.514C48.694,13.481,32.369,19.569,11.061,19.569
		c0,34.958-7.232,85.037,51.438,105.375C121.172,104.607,113.939,54.528,113.939,19.569z"/>
</g>
<path fill="#002878" d="M86.518,36.02l-0.613,0.8c-0.875,1.931-1.885,3.419-3.002,4.645c2.996,3.515,5.267,7.766,6.668,12.915
	c2.209,0.126,4.445,0.408,6.738,1.02C98.234,48.624,93.218,39.125,86.518,36.02L86.518,36.02z"/>
<path fill="#002878" d="M47.59,50.933c5.297-0.186,9.014,1.022,13.522,0.998l0.821-1.199l0.98-1.524
	c0.651-2.544,4.317-6.85,5.573-9.126c-2.184-3.274-5.446-5.313-8.471-7.667c-4.953,1.111-8.745,3.034-13.027,6.297
	C46.217,43.23,46.121,46.816,47.59,50.933L47.59,50.933z"/>
<g>
	<g>
		<g>
			<g>
				<g>
					<defs>
						<rect id="SVGID_2_" x="25.25" y="22.56" width="77.816" height="49.43"/>
					</defs>
					<clipPath id="SVGID_3_">
						<use xlink:href="#SVGID_2_"  overflow="visible"/>
					</clipPath>
					<g clip-path="url(#SVGID_3_)">
						<g>
							<circle fill="#95979D" cx="64.847" cy="59.88" r="33.887"/>
							<g>
								
									<linearGradient id="SVGID_4_" gradientUnits="userSpaceOnUse" x1="-16.3613" y1="-816.6641" x2="-2.2666" y2="-816.6641" gradientTransform="matrix(0.1488 0.9889 -0.9889 0.1488 -722.0977 164.3965)">
									<stop  offset="0" style="stop-color:#FFFFFF"/>
									<stop  offset="0.2199" style="stop-color:#FBFBFB"/>
									<stop  offset="0.4618" style="stop-color:#EDEEEF"/>
									<stop  offset="0.7142" style="stop-color:#D7D9DC"/>
									<stop  offset="0.9724" style="stop-color:#B9BCC0"/>
									<stop  offset="1" style="stop-color:#B5B8BD"/>
								</linearGradient>
								<path fill="url(#SVGID_4_)" d="M76.222,27.726c3.653,2.293,7.198,3.36,11.019,7.56c1.826,1.004,3.137,2.69,4.77,4.318
									C87.615,33.838,82.123,29.336,76.222,27.726L76.222,27.726z"/>
								
									<linearGradient id="SVGID_5_" gradientUnits="userSpaceOnUse" x1="9.4688" y1="-826.4243" x2="27.2822" y2="-826.4243" gradientTransform="matrix(0.1488 0.9889 -0.9889 0.1488 -722.0977 164.3965)">
									<stop  offset="0" style="stop-color:#FFFFFF"/>
									<stop  offset="0.2199" style="stop-color:#FBFBFB"/>
									<stop  offset="0.4618" style="stop-color:#EDEEEF"/>
									<stop  offset="0.7142" style="stop-color:#D7D9DC"/>
									<stop  offset="0.9724" style="stop-color:#B9BCC0"/>
									<stop  offset="1" style="stop-color:#B5B8BD"/>
								</linearGradient>
								<path fill="url(#SVGID_5_)" d="M98.219,68.443c1.134-4.33,1.77-8.964-0.76-17.791c0.16,1.982,0.46,3.85,0.15,5.354
									c1.508,3.311,1.176,7.771,0.258,12.599L98.219,68.443L98.219,68.443z"/>
								
									<linearGradient id="SVGID_6_" gradientUnits="userSpaceOnUse" x1="27.2012" y1="-820.1602" x2="40.9062" y2="-820.1602" gradientTransform="matrix(0.1488 0.9889 -0.9889 0.1488 -722.0977 164.3965)">
									<stop  offset="0" style="stop-color:#FFFFFF"/>
									<stop  offset="0.2199" style="stop-color:#FBFBFB"/>
									<stop  offset="0.4618" style="stop-color:#EDEEEF"/>
									<stop  offset="0.7142" style="stop-color:#D7D9DC"/>
									<stop  offset="0.9724" style="stop-color:#B9BCC0"/>
									<stop  offset="1" style="stop-color:#B5B8BD"/>
								</linearGradient>
								<path fill="url(#SVGID_6_)" d="M91.16,80.152l-1.235,3.426c4.381-5.211,6.921-10.223,8.203-15.094l-0.492,0.092
									C95.898,71.957,93.799,77.91,91.16,80.152L91.16,80.152z"/>
								<path fill="#FFFFFF" d="M47.642,51.254c-2.084,1.974-3.979,4.824-5.647,7.959l-1.812,4.449l0.372,1.469
									c0.763,2.279,1.706,4.213,2.731,5.979c0.754,1.789,1.695,3.465,2.941,4.961l0.594,1.025L47.713,77l5.533,0.865l4.185,0.361
									l2.241-0.062l1.261-0.264l4.583-7.688l2.549-4.391l-6.111-12.263l-0.602-1.064c-3.072-0.608-6.382-0.888-9.797-1.016
									L47.642,51.254L47.642,51.254z"/>
								<path fill="#FFFFFF" d="M69.474,40.647l-3.853,5.714l-1.474,2.548l-1.79,3.879l2.204,4.303
									c0.87,2.082,1.857,4.006,2.873,5.883l1.548,2.787l13.586,1.115c3.139-3.775,5.44-7.792,7.086-11.861
									c-1.22-4.645-3.326-8.85-6.021-12.596l-3.555-1.438C76.129,40.572,72.4,40.323,69.474,40.647L69.474,40.647z"/>
								<path fill="#002878" d="M69.066,65.992c-2.156,4.021-4.994,7.99-7.927,11.953c2.774,3.633,5.931,6.244,9.233,8.447
									c5.555-1.449,9.916-3.756,13.076-6.914c0.541-4.234,0.057-8.299-0.894-12.283C77.98,66.904,73.64,66.285,69.066,65.992
									L69.066,65.992z"/>
								<path fill="#FFFFFF" d="M47.512,77.744l-0.62,0.375l-3.239,5.949c1.377,1.871,3.035,4.043,5.146,5.971l4.337,1.879
									l4.019,1.238l9.039-0.48c1.825-2.125,2.829-4.006,3.271-5.719c-3.129-2.512-6.169-5.105-8.829-8.061
									C56.416,79.449,52.023,78.955,47.512,77.744L47.512,77.744z"/>
								<path fill="#002878" d="M46.388,76.988c-2.616-3.588-4.69-7.441-6.226-11.562l-1.01-1.322
									c-1.974,0.008-3.988-0.242-6.02-0.578c-0.727,4.242-0.042,8.172,1.805,11.637c1.557,3.562,4.545,6.398,8.381,8.176
									L46.388,76.988L46.388,76.988z"/>
								<path fill="#FFFFFF" d="M33.236,62.849c2.289,0.282,4.317,0.405,6.545,0.321c1.525-4.271,3.799-8.386,7.258-12.354
									c-1.096-3.42-1.213-6.573-0.59-11.569c-1.633-0.676-4.24-0.509-6.914,0.119c-3.195,2.601-5.623,6.576-7.272,10.926
									C30.972,55.963,31.27,60.227,33.236,62.849L33.236,62.849z"/>
								<path fill="#FFFFFF" d="M60.041,31.868c3.855,2.392,7.111,4.985,9.396,7.914c4.204-0.557,8.582-0.086,13.1,1.239
									l1.798-1.456c0.601-1.361,1.291-2.54,2.045-3.557l-0.151-1.766c-2.32-2.732-5.926-4.715-9.883-6.484
									c-4.814-1.393-8.975-1.271-12.891-0.602C61.713,28.827,60.678,30.381,60.041,31.868L60.041,31.868z"/>
								<path fill="#FFFFFF" d="M90.184,55.79c-1.91,4.707-4.29,8.277-6.933,11.21c1.016,4.131,1.5,8.352,0.811,12.764
									c2.562,0.512,4.972,0.641,7.037-0.076c2.92-1.953,4.944-5.66,6.563-10.164c1.345-4.689,1.07-9.029-0.537-13.083
									C94.402,55.813,92.033,55.542,90.184,55.79L90.184,55.79z"/>
								<path fill="#FFFFFF" d="M70.431,86.807c-0.754,2.127-1.925,4.09-3.511,5.889c0.807,0.74,2.15,1.002,4.037,0.785
									c6.568-1.27,12.904-3.953,18.721-9.758l0.768-1.354l-0.117-0.521l0.529-1.529c-2.445,0.43-5.234,0.342-7.305-0.125
									C79.881,83.555,75.385,85.562,70.431,86.807L70.431,86.807z"/>
								<path fill="#FFFFFF" d="M40.723,36.631c-0.539,0.84-0.869,1.645-0.99,2.414c2.373-0.635,4.687-1.073,6.781-0.805
									c3.568-3.199,8.699-5.781,12.71-6.082c1.095-2.224,2.2-4.168,4.062-5.23c-0.375-0.422-0.922-0.598-1.643-0.532
									C53.303,27.529,46.49,31.209,40.723,36.631L40.723,36.631z"/>
								
									<linearGradient id="SVGID_7_" gradientUnits="userSpaceOnUse" x1="0.5127" y1="-760.9229" x2="21.9639" y2="-760.9229" gradientTransform="matrix(0.1488 0.9889 -0.9889 0.1488 -722.0977 164.3965)">
									<stop  offset="0" style="stop-color:#FFFFFF"/>
									<stop  offset="0.2199" style="stop-color:#FBFBFB"/>
									<stop  offset="0.4618" style="stop-color:#EDEEEF"/>
									<stop  offset="0.7142" style="stop-color:#D7D9DC"/>
									<stop  offset="0.9724" style="stop-color:#B9BCC0"/>
									<stop  offset="1" style="stop-color:#B5B8BD"/>
								</linearGradient>
								<path fill="url(#SVGID_7_)" d="M31.828,51.47c-2.104,7.36-1.355,14.5,1.584,21.456c-1.219-3.959-1.731-7.369-0.994-9.799
									C31.053,61,31.115,56.877,31.828,51.47L31.828,51.47z"/>
								
									<linearGradient id="SVGID_8_" gradientUnits="userSpaceOnUse" x1="27.2598" y1="-767.8286" x2="41.2051" y2="-767.8286" gradientTransform="matrix(0.1488 0.9889 -0.9889 0.1488 -722.0977 164.3965)">
									<stop  offset="0" style="stop-color:#FFFFFF"/>
									<stop  offset="0.2199" style="stop-color:#FBFBFB"/>
									<stop  offset="0.4618" style="stop-color:#EDEEEF"/>
									<stop  offset="0.7142" style="stop-color:#D7D9DC"/>
									<stop  offset="0.9724" style="stop-color:#B9BCC0"/>
									<stop  offset="1" style="stop-color:#B5B8BD"/>
								</linearGradient>
								<path fill="url(#SVGID_8_)" d="M43.072,84.154c-2.461-0.959-4.832-3.346-7.229-6.238
									c3.776,5.699,8.215,10.031,12.919,12.158C46.957,88.646,45.085,86.83,43.072,84.154L43.072,84.154z"/>
								
									<linearGradient id="SVGID_9_" gradientUnits="userSpaceOnUse" x1="45.8818" y1="-788.1416" x2="47.9302" y2="-788.1416" gradientTransform="matrix(0.1488 0.9889 -0.9889 0.1488 -722.0977 164.3965)">
									<stop  offset="0" style="stop-color:#FFFFFF"/>
									<stop  offset="0.2199" style="stop-color:#FBFBFB"/>
									<stop  offset="0.4618" style="stop-color:#EDEEEF"/>
									<stop  offset="0.7142" style="stop-color:#D7D9DC"/>
									<stop  offset="0.9724" style="stop-color:#B9BCC0"/>
									<stop  offset="1" style="stop-color:#B5B8BD"/>
								</linearGradient>
								<path fill="url(#SVGID_9_)" d="M58.064,93.404c2.912,0.828,6.207,1.291,12.42,0.182c-1.996,0.273-3.248,0.1-4.463-0.58
									C62.982,93.791,60.459,93.666,58.064,93.404L58.064,93.404z"/>
								
									<linearGradient id="SVGID_10_" gradientUnits="userSpaceOnUse" x1="-12.752" y1="-769.2373" x2="-5.6543" y2="-769.2373" gradientTransform="matrix(0.1488 0.9889 -0.9889 0.1488 -722.0977 164.3965)">
									<stop  offset="0" style="stop-color:#FFFFFF"/>
									<stop  offset="0.2199" style="stop-color:#FBFBFB"/>
									<stop  offset="0.4618" style="stop-color:#EDEEEF"/>
									<stop  offset="0.7142" style="stop-color:#D7D9DC"/>
									<stop  offset="0.9724" style="stop-color:#B9BCC0"/>
									<stop  offset="1" style="stop-color:#B5B8BD"/>
								</linearGradient>
								<path fill="url(#SVGID_10_)" d="M39.921,36.838c-2.652,3.203-4.345,5.804-5.378,7.986c1.31-2.311,2.762-4.546,4.896-6.428
									L39.921,36.838L39.921,36.838z"/>
							</g>
						</g>
						
							<radialGradient id="SVGID_11_" cx="372.7344" cy="142.6455" r="37.5437" gradientTransform="matrix(0.9093 0.4464 -0.4469 0.9104 -193.1052 -243.4429)" gradientUnits="userSpaceOnUse">
							<stop  offset="0.2439" style="stop-color:#FFFFFF"/>
							<stop  offset="0.2439" style="stop-color:#FFFFFF"/>
							<stop  offset="0.2488" style="stop-color:#FFFFFF"/>
							<stop  offset="0.4211" style="stop-color:#E3E3E4"/>
							<stop  offset="0.6927" style="stop-color:#AFB1B3"/>
							<stop  offset="0.7196" style="stop-color:#A7A9AA"/>
							<stop  offset="0.9088" style="stop-color:#717172"/>
							<stop  offset="1" style="stop-color:#5C5C5C"/>
						</radialGradient>
						<path opacity="0.5" fill="url(#SVGID_11_)" enable-background="new    " d="M96.326,75.529
							c4.498-9.168,4.367-18.807,0.899-27.609c-3.065-7.791-8.396-14.766-16.498-18.745c-9.28-4.556-21.011-4.3-28.646-1.289
							c-7.639,3.013-14.033,9.253-17.963,17.235C26.092,61.42,33.207,82.51,50.467,90.98C67.727,99.455,87.844,92.807,96.326,75.529
							z"/>
					</g>
				</g>
			</g>
		</g>
		
			<linearGradient id="SVGID_12_" gradientUnits="userSpaceOnUse" x1="-333.1797" y1="794.3311" x2="-319.793" y2="794.3311" gradientTransform="matrix(1 0 0 1 429 -741)">
			<stop  offset="0" style="stop-color:#4A4A4A"/>
			<stop  offset="1" style="stop-color:#D1D1D1"/>
		</linearGradient>
		<path fill="url(#SVGID_12_)" d="M99.396,60.573l9.812-8.633L95.82,46.09c0,0,0.289,0.701,0.971,2.459
			C98.498,53.561,99.396,60.573,99.396,60.573z"/>
		
			<linearGradient id="SVGID_13_" gradientUnits="userSpaceOnUse" x1="-13135.0938" y1="820.5889" x2="-13124.5117" y2="820.5889" gradientTransform="matrix(-1 0 0 1 -13106.6387 -741)">
			<stop  offset="0" style="stop-color:#D1D1D1"/>
			<stop  offset="1" style="stop-color:#4A4A4A"/>
		</linearGradient>
		<polygon fill="url(#SVGID_13_)" points="28.455,85.562 17.873,78.633 28.455,73.615 		"/>
	</g>
	<path fill="#002878" d="M86.893,36.111l-0.617,0.806c-0.881,1.943-1.896,3.441-3.021,4.676c3.015,3.539,5.301,7.818,6.712,13.002
		c2.225,0.127,4.477,0.41,6.783,1.027C98.691,48.799,93.639,39.237,86.893,36.111L86.893,36.111z"/>
	<path fill="#002878" d="M47.705,51.124c5.332-0.188,9.074,1.03,13.613,1.004l0.826-1.207l0.986-1.533
		c0.656-2.562,4.347-6.896,5.611-9.188c-2.198-3.297-5.483-5.35-8.528-7.72c-4.986,1.119-8.804,3.054-13.114,6.34
		C46.322,43.37,46.226,46.98,47.705,51.124L47.705,51.124z"/>
	<polygon fill="#FED100" points="17.816,78.584 17.816,57.884 109.207,51.937 109.207,72.641 	"/>
	
		<text transform="matrix(0.9828 -0.0631 -0.1102 0.9939 19.2671 72.6504)" fill="#002878" font-family="'TeutonNormal-Bold'" font-size="15.2569">Gurú del Fútbol</text>
</g>
</svg>
