<?xml version="1.0" encoding="utf-8"?>
<!-- Generator: Adobe Illustrator 16.0.0, SVG Export Plug-In . SVG Version: 6.00 Build 0)  -->
<!DOCTYPE svg PUBLIC "-//W3C//DTD SVG 1.1//EN" "http://www.w3.org/Graphics/SVG/1.1/DTD/svg11.dtd">
<svg version="1.1" id="Layer_1" xmlns="http://www.w3.org/2000/svg" xmlns:xlink="http://www.w3.org/1999/xlink" x="0px" y="0px"
	 width="125px" height="125px" viewBox="0 0 125 125" enable-background="new 0 0 125 125" xml:space="preserve">
<g>
	<g>
		<path fill="#7AB800" d="M106.494,15.673c-36.15,0-42.266-13.723-42.322-13.851c-0.264-0.671-0.918-1.12-1.66-1.136
			c0,0-0.016,0-0.031,0c-0.719,0-1.381,0.449-1.67,1.104c-0.043,0.146-6.291,13.883-42.307,13.883c-1.006,0-1.801,0.814-1.801,1.799
			V78.96c0,25.171,43.234,44.401,45.064,45.21c0.242,0.104,0.473,0.145,0.732,0.145c0.238,0,0.496-0.041,0.726-0.145
			c1.848-0.809,45.071-20.039,45.071-45.21V17.472C108.289,16.487,107.49,15.673,106.494,15.673z"/>
	</g>
</g>
<g>
	<g>
		<g>
			<g>
				<g>
					<defs>
						<rect id="SVGID_1_" x="28.169" y="27.994" width="69.528" height="44.166"/>
					</defs>
					<clipPath id="SVGID_2_">
						<use xlink:href="#SVGID_1_"  overflow="visible"/>
					</clipPath>
					<g clip-path="url(#SVGID_2_)">
						<g>
							<circle fill="#95979D" cx="63.549" cy="61.339" r="30.278"/>
							<g>
								
									<linearGradient id="SVGID_3_" gradientUnits="userSpaceOnUse" x1="-11.9053" y1="-812.7183" x2="0.6875" y2="-812.7183" gradientTransform="matrix(0.1488 0.9889 -0.9889 0.1488 -722.0977 164.3965)">
									<stop  offset="0" style="stop-color:#FFFFFF"/>
									<stop  offset="0.2199" style="stop-color:#FBFBFB"/>
									<stop  offset="0.4618" style="stop-color:#EDEEEF"/>
									<stop  offset="0.7142" style="stop-color:#D7D9DC"/>
									<stop  offset="0.9724" style="stop-color:#B9BCC0"/>
									<stop  offset="1" style="stop-color:#B5B8BD"/>
								</linearGradient>
								<path fill="url(#SVGID_3_)" d="M73.712,32.61c3.265,2.048,6.432,3.002,9.846,6.754c1.631,0.897,2.802,2.404,4.261,3.859
									C83.893,38.071,78.985,34.048,73.712,32.61L73.712,32.61z"/>
								
									<linearGradient id="SVGID_4_" gradientUnits="userSpaceOnUse" x1="11.1738" y1="-821.4395" x2="27.0898" y2="-821.4395" gradientTransform="matrix(0.1488 0.9889 -0.9889 0.1488 -722.0977 164.3965)">
									<stop  offset="0" style="stop-color:#FFFFFF"/>
									<stop  offset="0.2199" style="stop-color:#FBFBFB"/>
									<stop  offset="0.4618" style="stop-color:#EDEEEF"/>
									<stop  offset="0.7142" style="stop-color:#D7D9DC"/>
									<stop  offset="0.9724" style="stop-color:#B9BCC0"/>
									<stop  offset="1" style="stop-color:#B5B8BD"/>
								</linearGradient>
								<path fill="url(#SVGID_4_)" d="M93.366,68.99c1.014-3.868,1.581-8.011-0.679-15.896c0.143,1.771,0.411,3.439,0.134,4.783
									c1.349,2.958,1.052,6.943,0.231,11.257L93.366,68.99L93.366,68.99z"/>
								
									<linearGradient id="SVGID_5_" gradientUnits="userSpaceOnUse" x1="27.0176" y1="-815.8423" x2="39.2617" y2="-815.8423" gradientTransform="matrix(0.1488 0.9889 -0.9889 0.1488 -722.0977 164.3965)">
									<stop  offset="0" style="stop-color:#FFFFFF"/>
									<stop  offset="0.2199" style="stop-color:#FBFBFB"/>
									<stop  offset="0.4618" style="stop-color:#EDEEEF"/>
									<stop  offset="0.7142" style="stop-color:#D7D9DC"/>
									<stop  offset="0.9724" style="stop-color:#B9BCC0"/>
									<stop  offset="1" style="stop-color:#B5B8BD"/>
								</linearGradient>
								<path fill="url(#SVGID_5_)" d="M87.06,79.452l-1.104,3.061c3.915-4.655,6.185-9.134,7.33-13.485l-0.439,0.081
									C91.294,72.13,89.418,77.449,87.06,79.452L87.06,79.452z"/>
								<path fill="#FFFFFF" d="M48.176,53.632c-1.862,1.764-3.556,4.31-5.045,7.111l-1.62,3.975l0.333,1.313
									c0.682,2.035,1.524,3.764,2.44,5.341c0.673,1.599,1.515,3.096,2.628,4.433l0.531,0.916l0.797-0.085l4.944,0.773l3.739,0.322
									l2.002-0.056l1.127-0.235l4.095-6.869l2.277-3.923l-5.46-10.957l-0.538-0.951c-2.745-0.543-5.702-0.793-8.753-0.908
									L48.176,53.632L48.176,53.632z"/>
								<path fill="#FFFFFF" d="M67.684,44.154L64.24,49.26l-1.316,2.276l-1.599,3.465l1.969,3.844
									c0.777,1.861,1.659,3.579,2.567,5.256l1.383,2.491l12.14,0.996c2.804-3.373,4.86-6.963,6.331-10.598
									c-1.091-4.149-2.973-7.906-5.381-11.254l-3.176-1.285C73.629,44.087,70.298,43.864,67.684,44.154L67.684,44.154z"/>
								<path fill="#002878" d="M67.319,66.8c-1.927,3.593-4.463,7.14-7.083,10.681c2.479,3.246,5.299,5.579,8.25,7.548
									c4.963-1.295,8.86-3.356,11.684-6.179c0.483-3.782,0.051-7.415-0.799-10.975C75.283,67.615,71.405,67.062,67.319,66.8
									L67.319,66.8z"/>
								<path fill="#FFFFFF" d="M48.06,77.3l-0.554,0.335l-2.894,5.316c1.23,1.672,2.712,3.612,4.598,5.335l3.875,1.678l3.59,1.107
									l8.077-0.429c1.631-1.899,2.528-3.58,2.923-5.11c-2.796-2.244-5.512-4.562-7.889-7.202
									C56.016,78.824,52.091,78.382,48.06,77.3L48.06,77.3z"/>
								<path fill="#002878" d="M47.056,76.625c-2.337-3.206-4.191-6.649-5.562-10.331l-0.902-1.181
									c-1.763,0.007-3.563-0.218-5.378-0.518c-0.649,3.791-0.037,7.302,1.613,10.397c1.391,3.183,4.061,5.717,7.488,7.305
									L47.056,76.625L47.056,76.625z"/>
								<path fill="#FFFFFF" d="M35.305,63.992c2.045,0.252,3.857,0.361,5.848,0.286c1.363-3.816,3.395-7.493,6.485-11.038
									c-0.979-3.056-1.084-5.873-0.527-10.337c-1.459-0.604-3.789-0.455-6.178,0.106c-2.855,2.324-5.024,5.876-6.498,9.762
									C33.282,57.839,33.547,61.648,35.305,63.992L35.305,63.992z"/>
								<path fill="#FFFFFF" d="M59.255,36.311c3.445,2.136,6.354,4.454,8.396,7.071c3.757-0.498,7.668-0.077,11.705,1.107
									l1.605-1.301c0.537-1.216,1.153-2.27,1.827-3.178l-0.135-1.577c-2.073-2.442-5.295-4.213-8.83-5.794
									c-4.302-1.244-8.02-1.136-11.518-0.538C60.749,33.593,59.824,34.982,59.255,36.311L59.255,36.311z"/>
								<path fill="#FFFFFF" d="M86.188,57.684c-1.707,4.206-3.833,7.396-6.195,10.018c0.908,3.69,1.341,7.462,0.726,11.404
									c2.288,0.457,4.441,0.571,6.287-0.068c2.608-1.745,4.418-5.058,5.863-9.082c1.202-4.19,0.957-8.067-0.479-11.69
									C89.957,57.705,87.84,57.462,86.188,57.684L86.188,57.684z"/>
								<path fill="#FFFFFF" d="M68.538,85.398c-0.674,1.899-1.72,3.653-3.137,5.261c0.721,0.661,1.921,0.896,3.606,0.702
									c5.869-1.135,11.53-3.532,16.728-8.719l0.686-1.209l-0.104-0.467l0.473-1.367c-2.185,0.385-4.677,0.307-6.526-0.11
									C76.981,82.492,72.964,84.286,68.538,85.398L68.538,85.398z"/>
								<path fill="#FFFFFF" d="M41.994,40.566c-0.482,0.75-0.777,1.47-0.885,2.157c2.12-0.567,4.188-0.959,6.059-0.719
									c3.188-2.858,7.772-5.166,11.356-5.434c0.978-1.987,1.966-3.724,3.629-4.674c-0.335-0.377-0.823-0.534-1.467-0.475
									C53.234,32.433,47.147,35.722,41.994,40.566L41.994,40.566z"/>
								
									<linearGradient id="SVGID_6_" gradientUnits="userSpaceOnUse" x1="3.1709" y1="-762.9141" x2="22.3379" y2="-762.9141" gradientTransform="matrix(0.1488 0.9889 -0.9889 0.1488 -722.0977 164.3965)">
									<stop  offset="0" style="stop-color:#FFFFFF"/>
									<stop  offset="0.2199" style="stop-color:#FBFBFB"/>
									<stop  offset="0.4618" style="stop-color:#EDEEEF"/>
									<stop  offset="0.7142" style="stop-color:#D7D9DC"/>
									<stop  offset="0.9724" style="stop-color:#B9BCC0"/>
									<stop  offset="1" style="stop-color:#B5B8BD"/>
								</linearGradient>
								<path fill="url(#SVGID_6_)" d="M34.046,53.825c-1.879,6.576-1.211,12.957,1.416,19.17c-1.089-3.537-1.547-6.584-0.888-8.755
									C33.354,62.34,33.41,58.656,34.046,53.825L34.046,53.825z"/>
								
									<linearGradient id="SVGID_7_" gradientUnits="userSpaceOnUse" x1="27.0703" y1="-769.0845" x2="39.5293" y2="-769.0845" gradientTransform="matrix(0.1488 0.9889 -0.9889 0.1488 -722.0977 164.3965)">
									<stop  offset="0" style="stop-color:#FFFFFF"/>
									<stop  offset="0.2199" style="stop-color:#FBFBFB"/>
									<stop  offset="0.4618" style="stop-color:#EDEEEF"/>
									<stop  offset="0.7142" style="stop-color:#D7D9DC"/>
									<stop  offset="0.9724" style="stop-color:#B9BCC0"/>
									<stop  offset="1" style="stop-color:#B5B8BD"/>
								</linearGradient>
								<path fill="url(#SVGID_7_)" d="M44.093,83.028c-2.199-0.857-4.317-2.99-6.459-5.574c3.375,5.092,7.34,8.963,11.543,10.863
									C47.564,87.041,45.892,85.419,44.093,83.028L44.093,83.028z"/>
								
									<linearGradient id="SVGID_8_" gradientUnits="userSpaceOnUse" x1="43.707" y1="-787.2344" x2="45.5376" y2="-787.2344" gradientTransform="matrix(0.1488 0.9889 -0.9889 0.1488 -722.0977 164.3965)">
									<stop  offset="0" style="stop-color:#FFFFFF"/>
									<stop  offset="0.2199" style="stop-color:#FBFBFB"/>
									<stop  offset="0.4618" style="stop-color:#EDEEEF"/>
									<stop  offset="0.7142" style="stop-color:#D7D9DC"/>
									<stop  offset="0.9724" style="stop-color:#B9BCC0"/>
									<stop  offset="1" style="stop-color:#B5B8BD"/>
								</linearGradient>
								<path fill="url(#SVGID_8_)" d="M57.489,91.292c2.602,0.74,5.545,1.154,11.097,0.163c-1.784,0.244-2.901,0.089-3.988-0.518
									C61.883,91.639,59.628,91.526,57.489,91.292L57.489,91.292z"/>
								
									<linearGradient id="SVGID_9_" gradientUnits="userSpaceOnUse" x1="-8.6807" y1="-770.3438" x2="-2.3398" y2="-770.3438" gradientTransform="matrix(0.1488 0.9889 -0.9889 0.1488 -722.0977 164.3965)">
									<stop  offset="0" style="stop-color:#FFFFFF"/>
									<stop  offset="0.2199" style="stop-color:#FBFBFB"/>
									<stop  offset="0.4618" style="stop-color:#EDEEEF"/>
									<stop  offset="0.7142" style="stop-color:#D7D9DC"/>
									<stop  offset="0.9724" style="stop-color:#B9BCC0"/>
									<stop  offset="1" style="stop-color:#B5B8BD"/>
								</linearGradient>
								<path fill="url(#SVGID_9_)" d="M41.278,40.751c-2.37,2.862-3.882,5.186-4.805,7.135c1.17-2.064,2.467-4.062,4.375-5.743
									L41.278,40.751L41.278,40.751z"/>
							</g>
						</g>
						
							<radialGradient id="SVGID_10_" cx="370.9209" cy="145.9648" r="33.5449" gradientTransform="matrix(0.9093 0.4464 -0.4469 0.9104 -193.1052 -243.4429)" gradientUnits="userSpaceOnUse">
							<stop  offset="0.2439" style="stop-color:#FFFFFF"/>
							<stop  offset="0.2439" style="stop-color:#FFFFFF"/>
							<stop  offset="0.2488" style="stop-color:#FFFFFF"/>
							<stop  offset="0.4211" style="stop-color:#E3E3E4"/>
							<stop  offset="0.6927" style="stop-color:#AFB1B3"/>
							<stop  offset="0.7196" style="stop-color:#A7A9AA"/>
							<stop  offset="0.9088" style="stop-color:#717172"/>
							<stop  offset="1" style="stop-color:#5C5C5C"/>
						</radialGradient>
						<path opacity="0.5" fill="url(#SVGID_10_)" enable-background="new    " d="M91.676,75.322
							c4.019-8.192,3.902-16.805,0.803-24.669c-2.738-6.961-7.501-13.193-14.74-16.749c-8.292-4.07-18.773-3.842-25.595-1.151
							c-6.825,2.691-12.539,8.268-16.05,15.399C28.921,62.715,35.279,81.559,50.7,89.127C66.122,96.699,84.097,90.759,91.676,75.322
							z"/>
					</g>
				</g>
			</g>
		</g>
		
			<linearGradient id="SVGID_11_" gradientUnits="userSpaceOnUse" x1="-337.7764" y1="796.4883" x2="-325.8154" y2="796.4883" gradientTransform="matrix(1 0 0 1 429 -741)">
			<stop  offset="0" style="stop-color:#4A4A4A"/>
			<stop  offset="1" style="stop-color:#D1D1D1"/>
		</linearGradient>
		<path fill="url(#SVGID_11_)" d="M94.418,61.958l8.767-7.713l-11.961-5.227c0,0,0.258,0.626,0.867,2.197
			C93.615,55.693,94.418,61.958,94.418,61.958z"/>
		
			<linearGradient id="SVGID_12_" gradientUnits="userSpaceOnUse" x1="-13137.6719" y1="819.9492" x2="-13128.2168" y2="819.9492" gradientTransform="matrix(-1 0 0 1 -13106.6387 -741)">
			<stop  offset="0" style="stop-color:#D1D1D1"/>
			<stop  offset="1" style="stop-color:#4A4A4A"/>
		</linearGradient>
		<polygon fill="url(#SVGID_12_)" points="31.033,84.286 21.578,78.094 31.033,73.611 		"/>
	</g>
	<path fill="#002878" d="M83.246,40.102l-0.551,0.72c-0.787,1.736-1.695,3.075-2.699,4.178c2.694,3.162,4.736,6.985,5.997,11.617
		c1.988,0.113,4,0.366,6.062,0.917C93.789,51.438,89.274,42.895,83.246,40.102L83.246,40.102z"/>
	<path fill="#002878" d="M48.233,53.515c4.764-0.167,8.107,0.92,12.163,0.897l0.739-1.079l0.881-1.37
		c0.586-2.29,3.884-6.162,5.014-8.209c-1.964-2.946-4.899-4.78-7.62-6.897c-4.456,1-7.866,2.728-11.718,5.665
		C46.997,46.587,46.911,49.812,48.233,53.515L48.233,53.515z"/>
	<polygon fill="#FED100" points="21.527,78.051 21.527,59.557 103.185,54.242 103.185,72.741 	"/>
	
		<text transform="matrix(0.9828 -0.0631 -0.1102 0.9939 22.8232 72.749)" fill="#002878" font-family="'TeutonNormal-Bold'" font-size="13.6318">Gurú del Fútbol</text>
</g>
</svg>
