<?xml version="1.0" encoding="utf-8"?>
<!-- Generator: Adobe Illustrator 16.0.0, SVG Export Plug-In . SVG Version: 6.00 Build 0)  -->
<!DOCTYPE svg PUBLIC "-//W3C//DTD SVG 1.1//EN" "http://www.w3.org/Graphics/SVG/1.1/DTD/svg11.dtd">
<svg version="1.1" id="Layer_1" xmlns="http://www.w3.org/2000/svg" xmlns:xlink="http://www.w3.org/1999/xlink" x="0px" y="0px"
	 width="100px" height="100px" viewBox="0 0 100 100" enable-background="new 0 0 100 100" xml:space="preserve">
<g>
	<g>
		<g>
			<path fill="#E05206" d="M63.258,30.516L56.254,8.804c-0.154-0.477-0.55-0.834-1.039-0.94l-22.306-4.79
				c-0.098-0.021-0.197-0.032-0.293-0.032c-0.392,0-0.771,0.164-1.04,0.462L16.274,20.425c-0.335,0.372-0.447,0.894-0.294,1.37
				l7.004,21.712c0.154,0.477,0.55,0.834,1.039,0.94l22.307,4.79c0.097,0.021,0.196,0.031,0.293,0.031
				c0.391,0,0.771-0.164,1.04-0.461l15.302-16.921C63.3,31.514,63.411,30.992,63.258,30.516z"/>
		</g>
	</g>
	<g>
		<g>
			<g>
				<path d="M96.809,66.003l-7.004-21.712c-0.154-0.476-0.552-0.835-1.039-0.94L66.459,38.56c-0.098-0.021-0.195-0.03-0.294-0.03
					c-0.392,0-0.771,0.164-1.039,0.461L49.824,55.912c-0.335,0.371-0.448,0.895-0.293,1.369l7.003,21.713
					c0.153,0.477,0.55,0.834,1.04,0.939l22.305,4.791c0.098,0.021,0.197,0.027,0.294,0.027c0.392,0,0.771-0.164,1.04-0.461
					L96.516,67.37C96.85,67.002,96.961,66.479,96.809,66.003z"/>
			</g>
		</g>
	</g>
	<g>
		<g>
			<path fill="#A09D96" d="M50.47,78.206l-7.004-21.713c-0.153-0.476-0.549-0.834-1.039-0.938L20.12,50.764
				c-0.097-0.021-0.195-0.029-0.293-0.029c-0.391,0-0.771,0.162-1.04,0.459l-15.3,16.925c-0.336,0.368-0.448,0.894-0.294,1.366
				l7.003,21.715c0.154,0.477,0.55,0.835,1.039,0.938l22.306,4.791c0.097,0.021,0.196,0.031,0.293,0.031
				c0.392,0,0.771-0.166,1.039-0.462l15.301-16.922C50.512,79.205,50.623,78.682,50.47,78.206z"/>
		</g>
	</g>
</g>
</svg>
