<?xml version="1.0" encoding="utf-8"?>
<!-- Generator: Adobe Illustrator 16.0.0, SVG Export Plug-In . SVG Version: 6.00 Build 0)  -->
<!DOCTYPE svg PUBLIC "-//W3C//DTD SVG 1.1//EN" "http://www.w3.org/Graphics/SVG/1.1/DTD/svg11.dtd">
<svg version="1.1" id="Layer_1" xmlns="http://www.w3.org/2000/svg" xmlns:xlink="http://www.w3.org/1999/xlink" x="0px" y="0px"
	 width="125px" height="125px" viewBox="0 0 125 125" enable-background="new 0 0 125 125" xml:space="preserve">
<g>
	<path fill="#EA5B0C" d="M113.939,19.569c-21.313,0-37.64-6.088-51.441-19.514C48.694,13.481,32.369,19.569,11.061,19.569
		c0,34.958-7.232,85.037,51.438,105.375C121.172,104.607,113.939,54.528,113.939,19.569z"/>
</g>
<g>
	<g>
		<g>
			<g>
				<polygon points="24.746,84.674 24.746,67.131 102.19,62.093 102.19,79.636 				"/>
			</g>
		</g>
		
			<text transform="matrix(0.9828 -0.0631 -0.1102 0.9939 32.5586 79.5781)" fill="#FFFFFF" font-family="'NIISans-Bold'" font-size="13">PALPITES</text>
	</g>
</g>
<g>
	<polygon fill="#FFFFFF" points="61.894,41.18 61.894,43.208 49.01,60.112 42.541,60.112 41.824,59.394 41.824,53.375 
		50.066,42.554 50.066,41.835 41.824,30.985 41.824,24.995 42.541,24.278 49.01,24.278 	"/>
	<polygon fill="#FFFFFF" points="75.991,24.278 82.461,24.278 83.177,24.995 83.177,30.985 74.938,41.835 74.938,42.554 
		83.177,53.375 83.177,59.394 82.461,60.112 75.991,60.112 63.107,43.208 63.107,41.18 	"/>
</g>
</svg>
