<?xml version="1.0" encoding="utf-8"?>
<!-- Generator: Adobe Illustrator 16.0.0, SVG Export Plug-In . SVG Version: 6.00 Build 0)  -->
<!DOCTYPE svg PUBLIC "-//W3C//DTD SVG 1.1//EN" "http://www.w3.org/Graphics/SVG/1.1/DTD/svg11.dtd">
<svg version="1.1" id="Layer_1" xmlns="http://www.w3.org/2000/svg" xmlns:xlink="http://www.w3.org/1999/xlink" x="0px" y="0px"
	 width="125px" height="125px" viewBox="0 0 125 125" enable-background="new 0 0 125 125" xml:space="preserve">
<g>
	<g>
		<path d="M106.494,15.673c-36.15,0-42.266-13.723-42.322-13.851c-0.264-0.671-0.918-1.12-1.66-1.136c0,0-0.016,0-0.031,0
			c-0.719,0-1.381,0.449-1.67,1.104c-0.043,0.146-6.291,13.883-42.307,13.883c-1.006,0-1.801,0.814-1.801,1.799V78.96
			c0,25.171,43.234,44.401,45.064,45.21c0.242,0.104,0.473,0.145,0.732,0.145c0.238,0,0.496-0.041,0.726-0.145
			c1.851-0.809,45.071-20.039,45.071-45.21V17.472C108.289,16.487,107.49,15.673,106.494,15.673z"/>
	</g>
</g>
<g>
	<g>
		<g>
			<g>
				<polygon points="4051.746,3999.674 4051.746,3982.131 4129.189,3977.093 4129.189,3994.636 				"/>
			</g>
		</g>
		
			<text transform="matrix(0.9828 -0.0631 -0.1102 0.9939 4059.5576 3994.5781)" fill="#FFFFFF" font-family="'NIISans-Bold'" font-size="13">PALPITES</text>
	</g>
</g>
<g>
	<polygon fill="#FFFFFF" points="23.775,83.732 23.775,66.189 101.221,61.152 101.221,78.695 	"/>
</g>
<g>
	<text transform="matrix(0.9828 -0.0631 -0.1102 0.9939 33.0093 78.6563)" font-family="'NIISans-Bold'" font-size="13">PALPITES</text>
</g>
<g>
	<polygon fill="#FFFFFF" points="61.894,41.18 61.894,43.208 49.01,60.112 42.541,60.112 41.824,59.394 41.824,53.375 
		50.066,42.554 50.066,41.835 41.824,30.985 41.824,24.995 42.541,24.278 49.01,24.278 	"/>
	<polygon fill="#FFFFFF" points="75.991,24.278 82.461,24.278 83.177,24.995 83.177,30.985 74.938,41.835 74.938,42.554 
		83.177,53.375 83.177,59.394 82.461,60.112 75.991,60.112 63.107,43.208 63.107,41.18 	"/>
</g>
</svg>
