<?xml version="1.0" encoding="utf-8"?>
<!-- Generator: Adobe Illustrator 16.0.0, SVG Export Plug-In . SVG Version: 6.00 Build 0)  -->
<!DOCTYPE svg PUBLIC "-//W3C//DTD SVG 1.1//EN" "http://www.w3.org/Graphics/SVG/1.1/DTD/svg11.dtd">
<svg version="1.1" id="Layer_1" xmlns="http://www.w3.org/2000/svg" xmlns:xlink="http://www.w3.org/1999/xlink" x="0px" y="0px"
	 width="477.011px" height="83.908px" viewBox="0 0 477.011 83.908" enable-background="new 0 0 477.011 83.908"
	 xml:space="preserve">
<g>
	<g>
		<polygon fill="#E32132" stroke="#E32132" stroke-width="0.25" stroke-miterlimit="10" points="445.156,54.923 443.527,52.783 
			420.014,71.017 		"/>
		<polygon fill="#E32132" stroke="#E32132" stroke-miterlimit="10" points="450.396,57.339 447.988,57.339 434.854,65.497 		"/>
		<polygon fill="#E32132" stroke="#E32132" stroke-miterlimit="10" points="441.419,50.433 441.419,48.035 429.743,59.536 		"/>
		<path fill="#E32132" d="M434.489,22.355c0,0,7.24,2.083,6.756-5.132c-0.486-7.216-4.183-8.51-8.296-5.633
			c-4.114,2.876,0.26,7.073-5.643,7.641c-5.903,0.568-26.293,0.336-26.64,9.087c-0.347,8.75,8.183,4.011,7.836,0.985
			c-0.346-3.024,12.909-7.851,10.529-1.808c-2.384,6.042-13.397,11.704-11.576,19.074c1.818,7.372,12.988-3.76,14.652,4.116
			c1.361,6.448-3.937,10.917-3.937,10.917s3.826-1.084,6.294-2.972c4.573-3.497,8.756-9.354,5.412-13.38
			c-5.151-6.198,5.263-8.921,5.648-13.82c0.386-4.898,10.885,8.779,16.767-3.019s-9.015-8.164-5.007-3.232
			c4.009,4.933-9.895,3.857-11.826-0.169C433.529,20.984,434.489,22.355,434.489,22.355z"/>
		<path fill="#E32132" d="M409.799,51.991c0,0,0.943,5.597-0.84,8.018c-1.635,2.218-5.857,4.721-6.269,7.706
			c0,0,11.531-5.284,12.374-7.904c1.289-4.014,0.596-6.405,1.072-9.403c0,0-2.189,0.842-3.296,1.142
			C411.676,51.865,411.66,51.784,409.799,51.991z"/>
		<circle fill="#E32132" cx="450.914" cy="47.621" r="6.334"/>
	</g>
	<text transform="matrix(1.1199 0 0 1 153.1665 55.5742)" fill="#E32132" font-family="'Cubano-Regular'" font-size="41.382">+</text>
	<g>
		<g>
			<path fill="#E32132" d="M200.582,35.85c-1.065,0.251-1.777-0.295-1.58-1.407c0.402-2.271-0.89-3.674-3.345-3.61
				c-2.036,0.053-3.552,1.35-3.651,2.615c-0.338,4.29,12.443,4.792,17.729,17.736c0.69,1.688,3.559,10.686-10.945,10.673
				c-12.852-0.012-15.702-7.589-15.899-11.856c-0.045-0.985,0.317-1.576,1.054-1.773c1.851-0.492,2.819-0.746,4.837-1.264
				c0.894-0.205,1.417,0.322,1.537,1.503c0.273,2.695,2.869,4.256,5.321,4.319c2.557,0.066,3.935-1.481,3.129-3
				c-2.538-4.783-15.23-4.238-15.056-16.688c0.023-1.622,1.375-11.322,15.096-11.331c12.62-0.008,11.684,6.655,10.341,10.626
				c-0.339,1.001-1.106,1.648-2.2,1.894C204.181,34.901,203.013,35.226,200.582,35.85z"/>
			<path fill="#E32132" d="M234.617,22.407c10.933-0.047,11.914,2.348,10.35,12.463s-4.905,15.131-16.302,15.002
				c-1.229-0.014-1.84-0.021-3.052-0.035c-1.2-0.015-1.685,0.566-1.228,1.711c1.463,3.659,2.352,5.411,4.438,8.359
				c0.652,0.921,0.392,1.334-0.834,1.329c-2.744-0.012-4.114-0.016-6.851-0.028c-1.162-0.005-2.197-0.504-2.789-1.412
				c-7.72-9.999-7.752-25.863-0.03-35.871c0.623-0.958,1.565-1.408,2.82-1.459C226.516,22.442,229.212,22.43,234.617,22.407z
				 M228.46,39.203c3.062-0.013,4.516-0.456,5.015-4.246s-0.374-3.979-3.409-3.933c-1.365,0.021-2.045,0.031-3.394,0.052
				c-1.186,0.019-2.114,0.587-2.557,1.741c-0.673,1.754-0.709,2.687-0.843,4.556c-0.083,1.168,0.579,1.851,1.771,1.845
				C226.399,39.213,227.083,39.209,228.46,39.203z"/>
			<path fill="#E32132" d="M284.226,49.865c0.055,3.993-0.498,12.143-15.04,12.142s-19.793-8.232-20.502-12.259
				c-1.074-6.1-1.074-9.729,0.001-15.823c0.71-4.021,5.959-12.257,20.501-12.258s15.096,8.151,15.04,12.142
				C284.142,39.854,284.143,43.814,284.226,49.865z M271.713,37.169c0.18-4.938,0.246-7.487-4.872-7.475
				c-5.119,0.012-6.158,2.582-6.476,7.496c-0.237,3.676-0.239,5.617-0.002,9.293c0.317,4.914,1.357,7.483,6.477,7.496
				c5.118,0.013,5.053-2.535,4.873-7.473C271.579,42.814,271.579,40.862,271.713,37.169z"/>
			<path fill="#E32132" d="M324.593,59.038c0.187,1.185-1.683,2.297-3.611,2.298c-2.837,0.002-4.257,0.003-7.098,0.004
				c-0.624,0-1.062-0.186-1.111-0.548c-0.796-3.239-1.724-5.538-4.053-10.36c-0.119-0.181-0.318-0.302-0.53-0.301
				c-1.134,0.004-1.701,0.006-2.839,0.009c-1.279,0.004-2.275,0.795-2.396,1.848c-0.426,3.691-0.729,5.425-1.515,8.107
				c-0.224,0.765-1.214,1.249-2.337,1.249c-2.797,0.001-4.197,0.002-6.995,0.002c-1.124,0-1.895-0.483-1.839-1.247
				c0.745-12.138,0.74-24.386,0.004-36.524c-0.056-0.763,0.711-1.248,1.835-1.248c5.472,0,8.203,0.001,13.668,0.003
				c11.104,0.003,18.839,2.386,20.415,12.527c0.894,5.75-1.183,10.068-5.082,12.491c-0.298,0.186-0.404,0.503-0.303,0.815
				C323.184,53.076,324.029,55.446,324.593,59.038z M305.001,30.708c-1.257-0.003-2.068,0.734-1.956,1.802
				c0.184,1.755,0.239,2.701,0.317,4.597c0.048,1.154,1.006,2,2.307,2.001c1.475,0.001,2.212,0.001,3.68,0.003
				c3.454,0.004,5.258-0.448,4.847-4.315s-2.298-4.069-5.639-4.079C307.138,30.714,306.426,30.711,305.001,30.708z"/>
			<path fill="#E32132" d="M341.177,32.711c-0.397-1.167-1.265-1.738-2.549-1.756c-3.597-0.051-5.422-0.075-9.111-0.121
				c-1.252-0.016-2.156-0.669-2.521-1.717c-0.86-2.471-1.399-3.621-2.695-5.546c-0.578-0.86-0.225-1.224,0.947-1.219
				c10.471,0.042,20.941,0.083,31.412,0.136c1.219,0.006,2.143,0.464,2.737,1.438c1.332,2.179,1.944,3.358,3.067,5.798
				c0.476,1.035,0.161,1.639-1.002,1.616c-3.256-0.064-4.924-0.095-8.324-0.154c-1.153-0.02-1.577,0.524-1.125,1.674
				c2.088,9.287,1.287,19.285-4.742,27.02c-0.617,0.884-1.611,1.358-2.837,1.363c-2.746,0.012-4.121,0.019-6.874,0.03
				c-1.167,0.005-1.459-0.437-0.851-1.288C342.48,52.071,343.28,42.029,341.177,32.711z"/>
			<path fill="#E32132" d="M384.009,36.078c-0.902,0.204-1.219-0.341-1.6-1.443c-0.785-2.272-2.833-3.753-5.3-3.816
				c-2.046-0.053-2.895,1.182-2.265,2.466c2.143,4.365,15.608,4.603,15.608,17.208c0,1.645-2.067,11.352-16.572,11.364
				c-12.853,0.012-11.557-6.8-10.068-11.183c0.345-1.015,1.057-1.662,2.088-1.915c2.589-0.63,3.841-0.944,6.261-1.566
				c1.069-0.25,1.626,0.275,1.654,1.481c0.065,2.756,0.849,4.191,3.312,4.128c2.569-0.066,4.737-1.71,4.782-3.198
				c0.142-4.687-11.888-4.483-17.237-17.146c-0.707-1.673-4.536-10.698,9.187-10.69c12.62,0.008,15.842,7.371,16.119,11.287
				c0.069,0.977-0.305,1.58-1.046,1.774C387.055,35.315,386.066,35.564,384.009,36.078z"/>
		</g>
	</g>
</g>
<g>
	<path fill="#CD2030" d="M121.692,26.289c3.26,12.201-2.817,27.528-13.992,30.515L46.732,73.096
		c-11.881,3.175-25.889-5.775-29.4-18.917l0,0c-3.442-12.881,3.289-28.516,15.086-31.668L90.775,6.916
		C106.667,2.667,118.981,16.139,121.692,26.289L121.692,26.289z"/>
	<g>
		<defs>
			<path id="SVGID_1_" d="M28.499,36.635c0,0-8.373,2.818-8.373-4.64c0,0-0.065-0.873,3.169-1.357
				c3.957-0.593,7.469-1.471,7.469-1.471s2.602-6.903,3.508-8.488c0.905-1.584,1.78-3.649,6.111-2.149c3.91,1.354,0,9.619,0,9.619
				s11.203-2.377,11.77,6.224L38.677,34.15l-3.614,12.556c0,0-0.452,2.717-3.96,1.924C27.594,47.839,26.577,43.085,28.499,36.635z"
				/>
		</defs>
		<clipPath id="SVGID_2_">
			<use xlink:href="#SVGID_1_"  overflow="visible"/>
		</clipPath>
		<g opacity="0.8" clip-path="url(#SVGID_2_)">
			
				<image overflow="visible" width="371" height="360" xlink:href="B6286C0CC2A0DBA9.png"  transform="matrix(0.24 0 0 0.24 -14.7734 -16.4546)">
			</image>
		</g>
		<g opacity="0.5" clip-path="url(#SVGID_2_)">
			
				<image overflow="visible" width="312" height="317" xlink:href="B6286C0CC2A0DBAB.png"  transform="matrix(0.24 0 0 0.24 12.6675 -5.998)">
			</image>
		</g>
		<g opacity="0.8" clip-path="url(#SVGID_2_)">
			
				<image overflow="visible" width="320" height="357" xlink:href="B6286C0CC2A0DBAE.png"  transform="matrix(0.24 0 0 0.24 -3.3003 -2.7324)">
			</image>
		</g>
		<g opacity="0.8" clip-path="url(#SVGID_2_)">
			
				<image overflow="visible" width="313" height="336" xlink:href="B6286C0CC2A0DBAF.png"  transform="matrix(0.24 0 0 0.24 2.1895 -15.9082)">
			</image>
		</g>
		<g clip-path="url(#SVGID_2_)">
			
				<image overflow="visible" width="326" height="355" xlink:href="B6286C0CC2A0DBAA.png"  transform="matrix(0.24 0 0 0.24 -5.6284 -2.7236)">
			</image>
		</g>
		<g clip-path="url(#SVGID_2_)">
			
				<image overflow="visible" width="350" height="307" xlink:href="B6286C0CC2A0DBA5.png"  transform="matrix(0.24 0 0 0.24 2.2183 -3.5928)">
			</image>
		</g>
		<g clip-path="url(#SVGID_2_)">
			
				<image overflow="visible" width="332" height="312" xlink:href="B6286C0CC2A0DBA6.png"  transform="matrix(0.24 0 0 0.24 -13.9565 -2.2212)">
			</image>
		</g>
	</g>
	<path fill-rule="evenodd" clip-rule="evenodd" fill="#F0D911" d="M65.455,45.484c2.527-7.611,9.491-7.268,13.694-5.132
		c2.671,1.357,3.664,4.422,2.526,7.796c-1.427,4.237-5.401,6.308-10.807,5.63C67.13,53.31,65.38,51.513,65.455,45.484
		c-0.319,1.783-0.961,4.19-1.156,5.987c-0.213,1.947-1.357,2.36-3.002,2.132c-1.996-0.276-1.17-1.766-1.077-2.808
		c0.126-1.428,0.426-2.846,0.738-4.247c0.317-1.414,1.019-3.155-1.106-3.437c-1.759-0.234-3.664,0.253-4.086,2.562
		c-0.344,1.886-0.645,3.782-0.925,5.68c-0.254,1.717-1.11,2.539-2.927,2.266c-1.995-0.302-1.223-1.762-1.143-2.8
		c0.12-1.548,0.523-3.07,0.721-4.616c0.161-1.26,0.689-2.942-1.247-3.141c-1.696-0.174-3.415,0.367-3.855,2.42
		c-0.426,1.991-0.758,4.008-1.038,6.025c-0.257,1.858-1.346,2.312-3.028,2.129c-2.216-0.244-1.111-1.756-0.979-2.709
		c0.438-3.203,0.968-6.398,1.596-9.57c0.458-2.312,1.728-3.774,3.932-1.774c0.874,0.794,0.404,0.76,1.043,0.341
		c0.309-0.203,1.026-1.013,3.053-0.986c2.964,0.038,3.038,1.092,4.461,1.118c2.256,0.042,3.478-0.935,5.823-0.644
		C64.223,39.781,66,41.483,65.455,45.484z M74.975,42.95c-2.773-0.108-4.79,1.793-4.925,4.326c-0.126,2.376,1.307,3.383,3.279,3.33
		c2.763-0.074,4.414-1.846,4.647-4.553C78.157,43.989,76.689,43.138,74.975,42.95z"/>
	<path fill-rule="evenodd" clip-rule="evenodd" fill="#F0D911" d="M89.435,48.617c1.991-2.979,3.56-5.224,5.012-7.54
		c0.75-1.195,1.645-2.206,3.082-2.133c1.2,0.06,2.639,0.418,1.424,2.203c-2.568,3.769-5.07,7.589-7.783,11.252
		c-1.635,2.206-4.253,1.717-5.167-0.854c-1.122-3.164-2.08-6.385-3.162-9.562c-0.42-1.234-0.784-2.365,0.915-2.874
		c1.499-0.449,2.613-0.025,3.123,1.522C87.661,43.001,88.404,45.386,89.435,48.617z"/>
	<path fill-rule="evenodd" clip-rule="evenodd" fill="#F0D911" d="M111.129,37.186c-0.807,4.43-1.807,9.587-2.658,14.77
		c-0.327,1.985-1.675,1.724-2.952,1.645c-1.859-0.116-1.12-1.386-0.95-2.377c0.821-4.825,1.626-9.653,2.479-14.472
		c0.243-1.37,0.791-2.544,2.511-2.493C111.026,34.301,111.34,35.195,111.129,37.186z"/>
	<path fill-rule="evenodd" clip-rule="evenodd" fill="#F0D911" d="M104.308,41.544c-0.557,3.24-1.24,6.752-1.741,10.287
		c-0.27,1.906-1.492,1.841-2.858,1.791c-1.729-0.061-1.451-1.244-1.263-2.3c0.629-3.52,1.314-7.028,1.958-10.544
		c0.289-1.587,1.242-2.318,2.786-2.011C104.554,39.039,104.729,40.075,104.308,41.544z"/>
	<path fill-rule="evenodd" clip-rule="evenodd" fill="#F0D911" d="M105.417,35.412c-0.111,1.424-0.343,2.589-1.999,2.439
		c-0.928-0.084-2.269,0.484-2.264-1.311c0.005-1.507,0.622-2.518,2.163-2.699C104.54,33.698,105.352,34.234,105.417,35.412z"/>
	<path fill-rule="evenodd" clip-rule="evenodd" fill="#F0D911" d="M75.383,38.214c1.415-1.922,2.305-4.631,5.778-3.707
		C79.786,36.898,78.027,38.251,75.383,38.214z"/>
	<path fill-rule="evenodd" clip-rule="evenodd" fill="#CD2030" d="M74.975,42.95c1.714,0.188,3.182,1.039,3.002,3.104
		c-0.233,2.707-1.885,4.479-4.647,4.553c-1.973,0.053-3.405-0.954-3.279-3.33C70.185,44.743,72.202,42.842,74.975,42.95z"/>
	<path fill="#650816" d="M28.286,37.449c0,0-8.374,2.819-8.374-4.64c0,0-0.065-0.874,3.17-1.358
		c3.956-0.593,7.468-1.471,7.468-1.471s2.603-6.904,3.509-8.488c0.904-1.584,1.779-3.649,6.11-2.15c3.911,1.354,0,9.619,0,9.619
		s11.203-2.375,11.769,6.225l-13.475-0.221l-3.614,12.556c0,0-0.451,2.717-3.959,1.925C27.38,48.651,26.361,43.899,28.286,37.449z"
		/>
	<radialGradient id="SVGID_3_" cx="35.5171" cy="33.4312" r="15.7016" gradientUnits="userSpaceOnUse">
		<stop  offset="0" style="stop-color:#FDE100"/>
		<stop  offset="1" style="stop-color:#EEC71A"/>
	</radialGradient>
	<path fill="url(#SVGID_3_)" d="M27.878,36.674c0,0-8.375,2.819-8.375-4.64c0,0-0.064-0.873,3.17-1.358
		c3.957-0.592,7.469-1.471,7.469-1.471s2.604-6.903,3.508-8.487c0.905-1.584,1.781-3.649,6.111-2.15c3.91,1.354,0,9.619,0,9.619
		s11.203-2.376,11.77,6.225L38.056,34.19l-3.615,12.555c0,0-0.451,2.717-3.959,1.925C26.972,47.877,25.955,43.125,27.878,36.674z"/>
	<g>
		<defs>
			<path id="SVGID_4_" d="M27.878,36.674c0,0-8.375,2.819-8.375-4.64c0,0-0.064-0.873,3.17-1.358
				c3.957-0.592,7.469-1.471,7.469-1.471s2.604-6.903,3.508-8.487c0.905-1.584,1.781-3.649,6.111-2.15c3.91,1.354,0,9.619,0,9.619
				s11.203-2.376,11.77,6.225L38.056,34.19l-3.615,12.555c0,0-0.451,2.717-3.959,1.925C26.972,47.877,25.955,43.125,27.878,36.674z"
				/>
		</defs>
		<clipPath id="SVGID_5_">
			<use xlink:href="#SVGID_4_"  overflow="visible"/>
		</clipPath>
		<g opacity="0.8" clip-path="url(#SVGID_5_)">
			
				<image overflow="visible" width="371" height="360" xlink:href="B6286C0CC2A0DBA7.png"  transform="matrix(0.24 0 0 0.24 -15.3955 -16.415)">
			</image>
		</g>
		<g opacity="0.5" clip-path="url(#SVGID_5_)">
			
				<image overflow="visible" width="312" height="317" xlink:href="B6286C0CC2A0DBB9.png"  transform="matrix(0.24 0 0 0.24 12.0454 -5.959)">
			</image>
		</g>
		<g opacity="0.8" clip-path="url(#SVGID_5_)">
			
				<image overflow="visible" width="320" height="357" xlink:href="53D79DD8213FBF72.png"  transform="matrix(0.24 0 0 0.24 -3.9214 -2.6929)">
			</image>
		</g>
		<g opacity="0.8" clip-path="url(#SVGID_5_)">
			
				<image overflow="visible" width="313" height="336" xlink:href="53D79DD8213FBF75.png"  transform="matrix(0.24 0 0 0.24 1.5674 -15.8687)">
			</image>
		</g>
		<g clip-path="url(#SVGID_5_)">
			
				<image overflow="visible" width="326" height="355" xlink:href="53D79DD8213FBF76.png"  transform="matrix(0.24 0 0 0.24 -6.2505 -2.6836)">
			</image>
		</g>
		<g clip-path="url(#SVGID_5_)">
			
				<image overflow="visible" width="350" height="307" xlink:href="53D79DD8213FBF74.png"  transform="matrix(0.24 0 0 0.24 1.5972 -3.5532)">
			</image>
		</g>
		<g clip-path="url(#SVGID_5_)">
			
				<image overflow="visible" width="332" height="312" xlink:href="53D79DD8213FBF73.png"  transform="matrix(0.24 0 0 0.24 -14.5786 -2.1816)">
			</image>
		</g>
	</g>
</g>
</svg>
